<?xml version="1.0" standalone="no"?>
<!DOCTYPE svg PUBLIC "-//W3C//DTD SVG 20010904//EN"
 "http://www.w3.org/TR/2001/REC-SVG-20010904/DTD/svg10.dtd">
<svg version="1.0" xmlns="http://www.w3.org/2000/svg"
 width="360.000000pt" height="335.000000pt" viewBox="0 0 360.000000 335.000000"
 preserveAspectRatio="xMidYMid meet">

<g transform="translate(0.000000,335.000000) scale(0.100000,-0.100000)"
fill="#000000" stroke="none">
<path d="M3360 3264 c-581 -360 -1102 -817 -1711 -1504 -172 -194 -460 -555
-579 -725 -35 -49 -66 -94 -70 -98 -4 -5 -63 24 -131 63 -240 140 -740 420
-749 420 -14 0 -80 -91 -80 -111 0 -10 172 -217 383 -461 210 -244 458 -532
552 -641 164 -191 170 -197 207 -197 l38 0 86 173 c423 845 862 1514 1414
2157 235 274 438 484 797 825 l53 50 -43 57 c-23 32 -46 57 -52 57 -5 0 -57
-30 -115 -65z"/>
</g>
</svg>
