<svg width="478" height="478" xmlns="http://www.w3.org/2000/svg" preserveAspectRatio="xMidYMid meet" version="1.0">

 <g>
  <title>Layer 1</title>
  <g id="svg_1" fill="#000000" transform="translate(0 512) scale(0.1 -0.1)">
   <path id="svg_2" d="m2175,5084c-282,-40 -374,-59 -560,-120c-180,-58 -419,-180 -595,-303c-156,-109 -358,-296 -465,-431c-33,-41 -63,-77 -66,-80c-16,-14 -123,-179 -173,-268c-124,-218 -212,-454 -257,-687c-91,-471 -49,-938 121,-1360c158,-390 436,-758 749,-990c47,-36 91,-68 96,-73c39,-30 169,-110 251,-153c254,-133 511,-214 801,-254c154,-22 549,-16 683,9c255,48 420,99 628,197c35,16 65,29 67,29c3,0 61,33 129,74c456,271 807,681 1003,1171c28,70 41,108 83,240c5,17 18,75 29,130c69,342 69,672 0,1009c-107,526 -434,1041 -874,1377c-89,68 -257,179 -270,179c-2,0 -27,14 -55,31c-59,36 -268,127 -361,157c-259,83 -439,113 -714,117c-121,2 -233,1 -250,-1zm406,-394c245,-25 470,-91 696,-207c386,-196 683,-495 879,-883c76,-153 139,-340 177,-535c29,-149 31,-542 4,-675c-95,-458 -258,-771 -557,-1070c-298,-299 -609,-460 -1070,-557c-125,-26 -514,-25 -655,1c-655,121 -1180,519 -1464,1109c-71,147 -126,320 -162,513c-29,156 -32,485 -5,634c49,277 131,504 256,710c289,480 750,810 1300,930c162,36 415,48 601,30z"/>
   <path id="svg_3" d="m1430,3501c-270,-58 -313,-433 -63,-552c58,-28 73,-31 137,-27c142,7 246,96 275,235c11,55 2,136 -21,183c-57,116 -204,188 -328,161z"/>
   <path id="svg_4" d="m3207,3500c-62,-16 -112,-47 -155,-95c-125,-142 -83,-366 84,-450c153,-78 327,-20 400,133c72,149 3,333 -147,396c-46,19 -136,27 -182,16z"/>
   <path id="svg_5" d="m1186,2026c-81,-52 -152,-98 -157,-103c-14,-14 131,-213 225,-308c144,-146 248,-221 431,-313c224,-112 439,-162 700,-162c173,0 316,23 500,78c57,18 218,93 305,142c145,83 324,243 442,395c86,110 116,164 96,176c-42,26 -160,100 -224,142c-41,26 -79,47 -84,47c-5,0 -17,-12 -27,-27c-70,-111 -196,-248 -298,-324c-112,-84 -192,-126 -328,-173c-252,-86 -500,-88 -757,-4c-225,72 -406,201 -561,395c-33,41 -66,88 -74,104c-9,16 -21,29 -28,29c-6,-1 -79,-43 -161,-94z"/>
  </g>
 </g>
</svg>