<?xml version="1.0" standalone="no"?>
<!DOCTYPE svg PUBLIC "-//W3C//DTD SVG 20010904//EN"
 "http://www.w3.org/TR/2001/REC-SVG-20010904/DTD/svg10.dtd">
<svg version="1.0" xmlns="http://www.w3.org/2000/svg"
 width="354.000000pt" height="142.000000pt" viewBox="0 0 354.000000 142.000000"
 preserveAspectRatio="xMidYMid meet">

<g transform="translate(0.000000,142.000000) scale(0.100000,-0.100000)"
fill="#000000" stroke="none">
<path d="M299 1121 l-29 -29 0 -382 0 -382 29 -29 29 -29 1439 0 c1347 0 1439
2 1459 18 43 34 44 46 44 422 0 376 -1 388 -44 422 -20 16 -112 18 -1459 18
l-1439 0 -29 -29z m601 -123 c0 -5 -7 -26 -16 -45 -17 -35 -42 -56 -81 -68
-53 -15 -9 90 49 118 33 16 48 14 48 -5z m950 -68 c0 -47 -4 -80 -10 -80 -6 0
-10 33 -10 80 0 47 4 80 10 80 6 0 10 -33 10 -80z m380 3 l0 -78 -37 0 c-47 0
-71 34 -54 78 8 21 17 27 41 27 25 0 30 4 30 25 0 14 5 25 10 25 6 0 10 -32
10 -77z m540 48 c0 -25 3 -28 26 -23 33 6 44 -10 44 -66 0 -58 -24 -52 -28 7
-3 33 -7 42 -20 39 -12 -2 -18 -15 -20 -46 -5 -74 -22 -45 -22 38 0 47 4 80
10 80 6 0 10 -13 10 -29z m-1430 -1 c46 -46 13 -117 -58 -127 l-42 -6 0 77 0
76 40 0 c27 0 47 -7 60 -20z m1368 -20 c16 -1 16 -2 0 -14 -23 -17 -23 -62 -2
-74 20 -11 3 -25 -20 -16 -11 4 -16 19 -16 44 0 21 -5 40 -12 42 -7 3 -5 12 8
26 15 18 20 20 22 7 2 -8 11 -15 20 -15z m-1230 -12 c21 -21 14 -66 -13 -84
-38 -25 -75 -6 -75 39 0 18 5 38 12 45 15 15 61 15 76 0z m68 -25 l7 -38 12
34 c15 46 30 49 45 9 l12 -33 9 33 c9 28 29 46 29 24 0 -19 -33 -102 -40 -102
-5 0 -14 17 -21 38 -7 22 -14 31 -17 22 -24 -75 -34 -74 -57 4 -12 39 -12 46
0 46 8 0 17 -15 21 -37z m235 16 c12 -24 8 -84 -6 -84 -5 0 -11 19 -13 43 -3
33 -7 42 -22 42 -15 0 -19 -9 -22 -42 -4 -60 -22 -54 -26 8 l-3 52 41 0 c30 1
43 -4 51 -19z m199 0 c26 -48 -22 -104 -68 -80 -29 16 -37 47 -18 76 21 32 70
34 86 4z m114 5 c3 -9 6 -33 6 -53 0 -37 -1 -38 -35 -37 -20 1 -40 8 -45 15
-12 21 6 51 31 51 12 0 19 5 16 13 -2 6 -14 11 -25 9 -12 -2 -22 2 -22 7 0 18
67 13 74 -5z m324 4 c28 -28 1 -98 -36 -98 -41 0 -69 69 -40 98 15 15 61 15
76 0z m132 -3 c13 -16 9 -90 -5 -90 -5 0 -11 19 -13 43 -3 34 -7 43 -20 40
-11 -2 -18 -15 -20 -38 -6 -58 -20 -56 -24 3 l-3 55 37 0 c20 1 42 -5 48 -13z
m410 -4 c17 -33 12 -41 -26 -41 -24 0 -34 -4 -31 -12 2 -7 16 -13 31 -13 28 1
30 -18 2 -23 -25 -5 -66 25 -66 49 0 37 19 59 50 59 19 0 33 -7 40 -19z
m-2219 -76 c38 -14 47 -14 91 1 57 19 104 13 143 -17 26 -21 26 -22 7 -43 -55
-60 -57 -119 -5 -176 36 -41 36 -41 20 -74 -8 -19 -30 -50 -48 -71 -30 -34
-35 -36 -73 -30 -52 8 -110 8 -162 0 -39 -7 -42 -5 -82 41 -44 49 -82 146 -82
208 0 75 35 135 95 162 39 17 44 17 96 -1z m1470 -121 c4 -2 5 -12 2 -22 -3
-14 -14 -18 -56 -17 -50 0 -52 -1 -55 -28 -3 -24 2 -30 42 -47 82 -37 107 -95
63 -146 -41 -48 -173 -44 -160 5 4 16 9 17 38 8 92 -28 133 52 45 87 -55 22
-80 50 -80 89 0 54 56 91 120 81 19 -3 38 -8 41 -10z m-798 -137 c26 -78 47
-146 47 -150 0 -4 -11 -7 -24 -7 -20 0 -27 8 -38 43 -15 42 -15 42 -63 42 -48
0 -48 0 -62 -42 -12 -36 -19 -43 -40 -43 -19 0 -24 4 -19 17 4 9 25 77 48 150
42 133 42 133 73 133 30 0 31 0 78 -143z m917 89 c0 -19 6 -25 27 -28 17 -2
29 -10 31 -20 3 -14 -3 -18 -27 -18 -31 0 -31 0 -31 -54 0 -67 7 -86 31 -86
12 0 19 -7 19 -20 0 -15 -7 -20 -27 -20 -53 0 -73 33 -73 119 0 48 -3 61 -15
61 -8 0 -15 9 -15 20 0 11 7 20 15 20 8 0 15 9 15 19 0 17 12 25 43 30 4 0 7
-10 7 -23z m450 -47 c0 -11 -7 -19 -17 -19 -37 0 -53 -30 -53 -102 0 -66 -1
-68 -25 -68 l-25 0 0 105 c0 98 1 105 20 105 12 0 20 -7 20 -16 0 -13 4 -12
26 5 29 23 54 18 54 -10z m-1240 5 c0 -14 2 -14 22 0 37 26 93 21 117 -11 72
-91 0 -223 -101 -185 l-28 10 0 -49 c0 -46 -2 -49 -25 -49 l-25 0 0 150 c0
143 1 150 20 150 11 0 20 -7 20 -16z m250 -1 c0 -15 1 -15 18 0 19 17 67 22
97 11 25 -10 45 -58 45 -109 0 -78 -69 -128 -131 -95 -18 10 -19 7 -19 -40 0
-47 -2 -50 -25 -50 l-25 0 0 150 c0 143 1 150 20 150 12 0 20 -7 20 -17z m801
-12 c24 -24 29 -38 29 -76 0 -40 -5 -52 -34 -81 -92 -92 -222 18 -161 136 20
38 41 49 93 50 35 0 49 -6 73 -29z m368 5 c12 -13 24 -39 28 -59 l5 -36 -75
-3 -76 -3 12 -25 c11 -22 19 -25 65 -25 42 0 52 -3 52 -16 0 -21 -20 -29 -72
-29 -30 0 -46 7 -69 29 -25 25 -29 37 -29 81 0 44 4 56 29 81 38 38 97 41 130
5z"/>
<path d="M2164 926 c-9 -24 0 -51 18 -54 19 -4 35 38 23 57 -9 16 -35 13 -41
-3z"/>
<path d="M1262 928 c3 -50 5 -53 28 -50 29 3 40 18 40 53 0 31 -17 49 -48 49
-22 0 -23 -3 -20 -52z"/>
<path d="M1415 929 c-4 -5 -4 -21 -1 -35 10 -37 40 -28 44 14 3 26 0 32 -17
32 -11 0 -23 -5 -26 -11z"/>
<path d="M1914 926 c-10 -26 0 -51 21 -51 16 0 20 7 20 30 0 33 -30 49 -41 21z"/>
<path d="M2040 885 c0 -8 7 -15 15 -15 8 0 15 7 15 15 0 8 -7 15 -15 15 -8 0
-15 -7 -15 -15z"/>
<path d="M2357 920 c-3 -10 1 -27 8 -37 13 -17 15 -17 30 -2 11 11 15 24 10
38 -8 26 -41 28 -48 1z"/>
<path d="M2907 944 c-13 -13 -7 -24 14 -24 11 0 19 5 17 12 -5 14 -22 21 -31
12z"/>
<path d="M1321 659 c-7 -24 -15 -52 -17 -61 -4 -15 1 -18 30 -18 41 0 42 4 17
74 l-17 49 -13 -44z"/>
<path d="M1560 611 c-15 -29 -12 -87 6 -105 19 -20 58 -21 73 -3 21 26 24 75
7 102 -21 31 -70 35 -86 6z"/>
<path d="M1812 618 c-7 -7 -12 -33 -12 -58 0 -25 5 -51 12 -58 17 -17 54 -15
72 4 18 18 21 76 6 105 -12 22 -59 26 -78 7z"/>
<path d="M2487 627 c-46 -33 -25 -137 28 -137 50 0 75 90 35 130 -23 23 -39
25 -63 7z"/>
<path d="M2862 628 c-26 -26 -14 -43 33 -43 48 0 57 12 29 39 -18 19 -45 21
-62 4z"/>
</g>
</svg>
