<svg width="1980" height="1000" xmlns="http://www.w3.org/2000/svg" preserveAspectRatio="xMidYMid meet" version="1.0">

 <g>
  <title>Layer 1</title>
  <g id="svg_1" fill="#000000" transform="translate(0 2000) scale(0.1 -0.1)">
   <path id="svg_2" d="m489.29411,19519.70615c-17,-43 55,-154 186,-286c137,-139 238,-200 480,-291c138,-52 250,-107 329,-162c44,-32 80,-48 120,-56c114,-21 128,-28 181,-88c97,-109 155,-134 367,-157c183,-20 225,-36 443,-166c140,-83 198,-104 344,-123c126,-17 188,-38 356,-119c82,-40 147,-82 229,-147c185,-148 223,-165 521,-235c104,-24 228,-57 276,-74c111,-39 643,-273 644,-284c0,-4 -22,-7 -50,-6c-28,1 -50,7 -50,13c0,7 -3,7 -8,-1c-5,-8 -19,-9 -47,-3c-21,5 -42,7 -46,4c-4,-2 -10,2 -12,8c-4,10 -6,10 -6,0c-1,-8 -6,-10 -13,-5c-7,4 -35,8 -62,9c-26,1 -51,5 -55,10c-3,5 -21,9 -40,9c-18,-1 -35,5 -38,11c-2,7 -15,10 -29,8c-15,-3 -24,0 -24,8c0,8 -3,9 -10,2c-13,-13 -100,4 -100,18c0,5 -4,6 -10,3c-5,-3 -10,-2 -10,2c0,5 -10,10 -22,11c-23,2 -59,9 -68,12c-3,1 -9,2 -13,1c-4,-1 -18,4 -30,11c-26,14 -29,15 -63,17c-14,0 -23,5 -19,10c3,6 -12,10 -33,9c-21,0 -47,4 -58,10c-22,13 -75,26 -88,23c-5,-1 -12,3 -15,8c-4,6 -24,12 -45,15c-20,3 -43,9 -49,14c-7,5 -20,8 -30,7c-10,-2 -20,2 -23,9c-2,6 -19,13 -36,14c-17,2 -38,8 -45,14c-7,6 -13,8 -13,4c0,-4 -12,0 -27,7c-16,8 -34,12 -41,10c-7,-3 -21,1 -30,9c-25,20 -92,49 -102,43c-4,-3 -13,2 -20,10c-7,8 -16,13 -20,10c-5,-3 -14,0 -22,7c-7,7 -20,14 -28,16c-8,2 -21,9 -28,15c-8,6 -20,12 -27,13c-7,1 -35,13 -61,26c-27,14 -52,25 -57,26c-4,1 -21,9 -37,17c-17,9 -30,12 -30,8c0,-4 -5,-2 -11,4c-6,6 -18,9 -25,6c-10,-4 -12,0 -8,13c4,11 4,16 -1,12c-4,-4 -15,-2 -23,5c-9,6 -13,7 -10,2c4,-6 -24,4 -60,22c-37,18 -74,32 -82,33c-8,0 -33,9 -54,21c-21,11 -45,18 -53,15c-8,-3 -11,-1 -8,4c3,6 -3,10 -13,10c-11,0 -22,6 -25,14c-3,8 -16,12 -31,11c-14,-2 -24,0 -21,5c5,8 -80,45 -104,45c-8,0 -16,5 -18,12c-3,7 -11,9 -20,6c-10,-4 -14,-2 -10,4c6,10 -37,29 -57,24c-4,-1 -14,3 -22,10c-7,6 -19,7 -25,3c-8,-4 -9,-3 -5,4c4,7 -8,15 -32,22c-22,5 -52,20 -68,32c-15,13 -25,17 -21,10c6,-8 3,-10 -7,-6c-9,3 -16,11 -16,16c0,6 -7,8 -15,4c-8,-3 -15,-1 -15,3c0,5 -19,12 -42,16c-24,4 -56,17 -73,29c-16,11 -31,19 -32,16c-1,-3 -11,3 -23,12c-11,10 -20,16 -20,13c0,-2 -12,2 -27,10c-15,8 -30,12 -35,9c-4,-3 -8,0 -8,5c0,6 -3,10 -7,9c-5,-1 -23,3 -41,9c-18,7 -36,13 -40,13c-4,1 -15,9 -25,17c-9,9 -20,13 -24,10c-3,-4 -12,1 -20,11c-8,9 -11,11 -8,3c6,-10 2,-10 -16,2c-13,8 -39,18 -56,22c-18,4 -33,10 -33,15c0,4 -6,8 -12,7c-30,-1 -49,4 -45,11c3,4 -5,7 -16,8c-33,2 -66,9 -73,17c-4,4 -17,7 -28,7c-12,0 -29,7 -39,15c-11,7 -27,12 -38,10c-10,-2 -19,2 -19,8c0,8 -3,8 -9,-2c-6,-9 -11,-10 -15,-3c-4,6 -13,9 -21,5c-8,-3 -15,-1 -15,4c0,10 -3,11 -68,14c-28,1 -46,7 -49,16c-5,12 -7,12 -14,1c-7,-10 -9,-10 -9,0c0,6 -9,12 -21,12c-11,0 -17,-4 -14,-10c11,-17 -7,-11 -21,8c-10,12 -13,13 -14,3c0,-11 -3,-11 -17,0c-14,12 -15,12 -9,1c7,-11 4,-12 -10,-4c-11,5 -35,9 -54,9c-20,-1 -43,2 -52,6c-10,3 -24,0 -32,-8c-17,-17 -30,-20 -21,-5c8,12 8,13 -40,-4c-21,-8 -41,-20 -43,-27c-3,-12 -2,-12 6,0c5,7 16,11 23,9c8,-3 0,-10 -19,-19c-30,-13 -37,-22 -33,-43c1,-5 -4,-4 -13,3c-11,9 -16,9 -22,0c-4,-8 -3,-9 4,-5c7,4 12,1 12,-7c0,-8 -7,-17 -15,-21c-8,-3 -15,-12 -15,-20c0,-8 -6,-17 -12,-19c-7,-3 -2,-6 12,-7c22,-1 23,-2 8,-13c-12,-9 -13,-18 -7,-30c8,-13 6,-15 -7,-10c-14,5 -16,3 -10,-13c5,-10 9,-25 9,-31c0,-7 5,-13 11,-13c6,0 4,-5 -4,-10c-10,-6 -11,-10 -3,-10c9,0 10,-7 3,-24c-6,-18 -5,-28 5,-36c8,-7 13,-28 12,-56c-2,-33 2,-44 13,-45c10,0 11,-2 3,-6c-8,-3 -10,-11 -5,-21c4,-9 7,-26 7,-37c-1,-11 4,-26 9,-34c8,-11 8,-13 -1,-7c-7,4 -13,2 -13,-3c0,-6 6,-11 13,-11c8,0 9,-3 1,-8c-6,-4 -12,-23 -13,-42c0,-19 -3,-47 -5,-62c-2,-16 1,-28 7,-28c6,0 5,-5 -1,-13c-6,-7 -10,-22 -8,-32c2,-11 -3,-36 -10,-57c-7,-20 -10,-39 -7,-42c3,-3 2,-13 -3,-23c-4,-10 -9,-22 -9,-28c-1,-5 -7,-22 -13,-36c-6,-15 -13,-42 -15,-60c-2,-19 -9,-33 -15,-32c-5,1 -9,-9 -7,-23c1,-13 -2,-27 -6,-30c-5,-3 -9,-14 -9,-24c0,-10 -9,-35 -21,-54c-11,-19 -22,-47 -25,-62c-3,-15 -13,-34 -22,-42c-9,-7 -11,-11 -5,-7c7,3 13,1 13,-4c0,-6 -4,-11 -10,-11c-5,0 -15,-19 -21,-42c-7,-24 -18,-50 -26,-59c-7,-8 -13,-27 -13,-40c0,-14 -7,-35 -16,-47c-8,-12 -13,-26 -9,-31c3,-5 1,-12 -4,-15c-5,-3 -14,-28 -21,-56c-7,-28 -16,-53 -21,-56c-5,-3 -9,-16 -9,-29c0,-13 -6,-26 -13,-28c-9,-4 -9,-6 1,-6c9,-1 9,-7 -3,-25c-9,-13 -15,-28 -14,-32c1,-5 0,-16 -4,-24c-18,-49 -25,-82 -21,-95c4,-8 1,-15 -5,-15c-6,0 -10,-3 -9,-7c1,-7 -4,-38 -19,-108c-2,-11 -6,-31 -9,-45c-2,-14 -9,-47 -14,-75c-5,-27 -12,-66 -14,-85c-2,-19 -7,-46 -10,-60c-4,-14 -11,-56 -15,-95c-5,-38 -12,-81 -15,-95c-4,-14 -11,-65 -16,-115c-6,-49 -12,-103 -14,-120c-3,-16 -8,-72 -11,-124c-3,-52 -8,-98 -11,-102c-4,-7 -8,-60 -20,-279c-12,-205 -5,-437 18,-605c6,-44 11,-89 12,-100c1,-11 5,-26 10,-33c4,-7 6,-16 3,-18c-3,-3 -1,-21 5,-41c5,-19 12,-44 14,-54c2,-11 7,-29 10,-41c3,-13 7,-32 7,-43c1,-11 8,-26 14,-33c7,-7 14,-20 14,-28c2,-22 4,-28 10,-39c4,-5 10,-23 14,-40c10,-38 6,-25 59,-195c47,-152 112,-320 146,-377c11,-19 20,-36 20,-38c0,-3 -35,11 -77,31c-43,19 -154,67 -248,106c-93,39 -196,84 -227,101c-43,23 -60,29 -69,20c-27,-27 42,-71 329,-207c223,-105 614,-308 872,-453c63,-36 169,-87 235,-114c66,-27 174,-81 240,-118c66,-38 163,-85 215,-106c52,-20 142,-64 200,-98c58,-33 139,-78 180,-100c188,-100 493,-298 604,-394c49,-42 136,-105 194,-140c57,-35 116,-72 131,-82c14,-10 80,-46 146,-79c66,-33 188,-98 272,-144c83,-47 173,-91 200,-98c173,-45 234,-65 283,-95c30,-18 96,-49 147,-68c50,-20 103,-43 116,-52c21,-13 30,-14 63,-3c34,11 39,18 42,46c3,26 11,36 43,53c22,11 57,37 78,58l39,39l69,-61c104,-93 221,-176 298,-213c77,-38 95,-41 95,-19c0,30 -32,64 -108,116c-42,29 -129,92 -192,139c-126,95 -142,104 -159,87c-8,-8 -14,-8 -23,1c-18,18 -52,14 -82,-9c-14,-11 -26,-17 -26,-12c0,19 40,236 44,240c3,3 14,-12 24,-34c22,-42 58,-83 72,-83c23,0 16,25 -34,126c-50,103 -53,113 -48,168l5,59l57,-144c52,-130 60,-144 84,-147c19,-2 26,1 26,13c0,26 -72,198 -149,355c-4,8 -5,41 -2,74l6,58l85,-168c82,-163 110,-201 110,-152c0,33 -162,358 -179,358c-11,0 -12,12 -7,58c3,31 9,134 12,227c4,94 11,172 15,176c5,3 16,45 24,95c49,280 131,619 233,964c88,294 240,793 267,870c14,41 39,127 55,190c81,321 164,539 256,676c66,97 102,179 113,259c24,155 341,515 586,663c44,27 103,63 131,81c28,17 91,43 140,57c82,24 100,25 239,20c86,-3 178,-12 215,-21c36,-9 75,-17 87,-19c13,-1 26,-6 30,-9c3,-4 25,-7 48,-7c37,0 283,-55 294,-66c2,-2 -9,-8 -25,-14c-16,-6 -76,-31 -134,-56l-105,-45l-176,-172c-121,-119 -210,-218 -290,-322c-228,-296 -283,-389 -278,-469c3,-41 -1,-50 -57,-115c-88,-106 -144,-206 -144,-257c0,-23 -3,-44 -7,-46c-11,-4 -62,-84 -74,-116c-30,-75 -51,-170 -64,-289c-8,-72 -19,-143 -25,-157c-5,-14 -14,-76 -19,-138c-11,-118 -55,-332 -116,-553c-46,-172 -62,-281 -75,-515c-16,-311 -37,-470 -90,-665c-10,-38 -28,-119 -40,-180c-12,-60 -33,-137 -46,-170c-13,-33 -33,-90 -44,-127c-11,-37 -41,-98 -67,-135c-167,-244 -223,-336 -294,-476c-81,-161 -91,-195 -64,-217c19,-15 21,-13 61,53c18,30 37,51 45,49c8,-2 42,-11 77,-20c98,-24 149,2 99,52c-15,15 -41,26 -73,30c-79,11 -81,15 -44,82c58,102 128,212 205,320c90,126 112,167 126,236c5,29 21,78 34,108c13,30 35,111 50,180c14,69 37,168 50,220c26,105 63,295 67,350c3,29 8,18 31,-64c41,-147 93,-254 113,-233c3,3 -22,88 -57,189c-62,182 -63,184 -67,316l-4,132l26,0c23,0 26,-4 26,-37c1,-93 83,-388 122,-438c20,-26 48,-34 48,-14c0,6 -18,60 -39,119c-38,103 -101,326 -101,357c0,13 12,15 78,9c203,-18 202,-17 192,-36c-10,-20 5,-88 39,-180c30,-80 57,-120 81,-120c25,0 24,7 -37,178c-24,68 -43,125 -43,127c0,7 106,6 123,-1c9,-3 12,-14 9,-29c-5,-26 40,-169 64,-203c20,-29 44,-28 44,1c0,19 -40,148 -65,209c-6,15 -2,16 29,11c45,-7 70,11 61,44c-10,40 24,27 79,-31c41,-44 73,-65 170,-110l118,-56l-36,-43c-20,-23 -58,-69 -84,-102c-124,-158 -363,-381 -591,-549c-77,-57 -91,-75 -210,-276c-27,-47 -97,-143 -156,-213c-101,-124 -320,-418 -344,-464c-16,-31 -14,-41 13,-58c24,-16 26,-15 60,22c20,21 81,99 135,173c55,74 143,187 196,250c53,63 122,158 152,210c31,52 70,115 87,140c17,25 36,54 42,65c6,11 48,48 95,82c213,158 443,369 554,508c22,28 68,81 102,119c35,38 63,77 63,88c0,12 5,18 13,15c7,-2 60,-15 117,-27c58,-12 149,-35 202,-51l96,-29l-26,-63c-21,-50 -26,-83 -30,-170l-4,-109l37,-54c78,-113 174,-173 351,-220c119,-32 134,-39 134,-65c0,-11 18,-84 41,-162c23,-78 48,-167 56,-197c43,-157 111,-202 406,-266c74,-16 78,-16 91,1c12,16 23,6 127,-111c227,-255 327,-348 461,-423c29,-16 48,-33 48,-44c0,-28 31,-33 50,-9c17,21 18,17 24,-91c4,-62 6,-146 5,-187c-1,-79 12,-147 39,-193c27,-45 162,-134 305,-200l132,-61l404,-9c360,-8 405,-7 419,6c14,15 20,12 62,-23c50,-42 152,-105 237,-146c65,-31 199,-43 478,-44c212,0 451,30 558,70c100,38 223,153 277,261l29,56l123,6c134,6 163,13 315,80c125,55 207,110 297,198l69,67l161,4c155,3 163,4 216,32c75,39 189,118 222,153c34,35 118,256 125,328c5,45 2,55 -22,83c-15,18 -25,32 -22,32c2,0 45,-14 95,-30l91,-30l261,0c161,0 269,4 281,10c10,6 19,20 19,31c0,12 11,30 25,41c36,28 92,133 111,208c18,73 15,205 -6,255c-7,17 -12,34 -11,39c4,16 -22,81 -47,119c-14,20 -23,39 -21,41c15,14 182,90 332,152c189,79 263,114 369,175c36,22 73,39 80,39c14,0 94,-104 186,-242c71,-105 109,-140 184,-166c48,-17 85,-22 157,-22c88,0 99,2 184,41c50,22 125,47 166,55c42,8 105,23 141,34c36,10 103,26 150,35c47,8 110,22 140,30c30,8 123,26 205,40c186,30 241,46 237,67c-1,10 7,17 26,20c28,4 31,0 75,-91c25,-53 55,-118 66,-144c13,-32 29,-52 48,-60c15,-7 29,-19 31,-27c5,-23 19,-27 98,-35c96,-9 192,7 378,61c251,74 319,84 611,94c143,5 305,14 360,20c55,5 167,14 248,19c130,9 160,15 250,46c56,20 134,45 172,56c39,10 107,33 153,51c91,34 99,47 61,100c-20,27 -25,29 -68,25c-52,-6 -234,-60 -361,-107c-76,-29 -102,-33 -245,-41c-88,-5 -198,-13 -244,-19c-88,-10 -116,-7 -59,6c40,9 39,9 58,16c16,6 158,48 175,52c73,16 213,77 261,113c17,13 35,23 40,23c17,0 115,103 156,163c93,137 128,260 134,467c3,138 -1,181 -27,310c-14,67 -47,187 -59,215c-22,53 -40,107 -40,124c0,10 -7,24 -15,31c-8,6 -13,15 -12,18c1,7 -20,93 -30,122c-9,22 -13,42 -16,70c-2,14 -6,30 -10,37c-4,6 -7,22 -6,34c0,35 -13,122 -20,134c-4,6 -6,34 -6,62c0,29 -2,53 -5,53c-5,0 -6,8 -15,155c-3,50 -7,95 -10,102c-2,7 0,15 6,18c5,4 7,11 3,16c-6,10 -11,125 -18,395c-2,84 -7,157 -10,163c-4,6 -2,11 4,11c6,0 8,5 5,10c-3,6 -8,48 -10,95c-3,46 -7,108 -9,137c-3,29 -8,85 -11,123c-10,121 -17,170 -25,180c-4,6 -5,22 -3,38c2,15 0,27 -5,27c-4,0 -9,8 -10,18c-2,21 -7,42 -15,62c-16,43 -24,77 -21,93c1,9 -1,15 -5,13c-4,-3 -13,11 -20,30c-7,18 -17,34 -22,34c-5,0 -9,9 -9,20c0,11 -5,20 -12,20c-6,0 -8,3 -5,7c4,3 0,15 -10,25c-9,10 -12,18 -8,18c4,0 -3,10 -17,23c-13,12 -23,27 -21,33c2,5 -6,20 -17,32c-12,12 -18,27 -14,34c4,6 3,8 -2,5c-6,-3 -10,11 -10,34c0,21 3,39 7,39c5,0 6,7 3,15c-4,8 -1,15 5,15c6,0 11,5 11,11c0,6 34,43 75,83c97,96 118,144 77,183c-10,10 -25,20 -33,22c-35,11 -128,16 -164,9c-22,-4 -61,-7 -86,-7c-41,-1 -79,-9 -129,-29c-21,-7 -18,-7 -85,-21c-33,-7 -67,-15 -75,-18c-8,-3 -23,-8 -33,-10c-10,-1 -30,-9 -45,-17c-15,-7 -40,-17 -57,-21c-16,-5 -32,-9 -35,-10c-3,-1 -25,-7 -50,-14c-25,-8 -58,-19 -75,-26c-35,-15 -74,-27 -95,-31c-8,-1 -29,-5 -46,-8c-17,-2 -58,-11 -90,-19c-49,-13 -141,-29 -159,-28c-3,0 -26,-6 -52,-14c-25,-8 -49,-12 -52,-10c-4,2 -26,-1 -51,-6c-152,-30 -408,-31 -615,-3c-51,7 -253,6 -264,-1c-6,-3 -11,-2 -11,3c0,5 19,13 43,19c23,6 112,29 197,51c85,22 258,59 383,82c125,22 314,59 420,80c106,21 289,55 407,75c374,63 788,164 940,230c47,21 110,48 140,61c49,20 55,27 58,55c5,46 -6,79 -26,79c-9,0 -53,-16 -97,-36c-195,-87 -512,-177 -865,-244c-91,-17 -316,-60 -500,-96c-184,-36 -420,-81 -524,-100c-211,-38 -338,-68 -636,-149c-257,-70 -378,-96 -383,-82c-5,16 -34,1 -51,-25c-8,-13 -20,-63 -25,-112c-6,-49 -13,-91 -15,-94c-3,-3 -36,-8 -73,-12c-38,-4 -88,-16 -113,-28c-35,-17 -64,-22 -130,-22c-111,0 -196,-16 -480,-89c-161,-41 -279,-65 -375,-76c-77,-9 -159,-21 -183,-27c-53,-13 -98,-62 -113,-123c-6,-25 -15,-45 -20,-45c-19,0 -216,84 -322,136c-164,83 -209,98 -574,190c-401,101 -493,131 -998,326c-131,51 -522,235 -665,313c-36,20 -126,63 -200,96c-167,75 -221,83 -354,49c-96,-24 8,-23 -1166,-6c-321,5 -423,-11 -531,-84c-24,-16 -46,-25 -50,-19c-11,19 -69,-71 -69,-109c0,-28 -72,-270 -137,-465l-57,-169l-46,7c-25,3 -103,20 -173,36c-71,16 -135,29 -144,29c-8,0 -22,8 -31,19c-10,10 -35,28 -57,38c-200,99 -259,124 -320,138c-38,9 -113,29 -166,46c-107,32 -173,37 -206,14c-20,-14 -24,-14 -42,4c-45,45 -169,63 -356,52c-91,-5 -281,30 -302,56c-8,10 -21,13 -37,9c-14,-3 -26,-1 -28,5c-6,17 -405,109 -475,109c-55,0 -63,2 -63,19c0,14 -13,24 -47,35c-26,9 -54,16 -63,16c-10,0 -28,9 -42,19c-13,11 -44,24 -68,31c-25,6 -63,17 -85,25c-51,17 -248,52 -340,60c-117,11 -173,23 -263,59c-48,19 -127,44 -177,55c-49,12 -117,30 -150,41c-33,11 -116,31 -184,45c-68,14 -159,36 -203,50c-44,14 -119,32 -166,39c-48,8 -100,20 -117,26c-16,6 -76,22 -133,36c-112,26 -120,29 -424,162c-273,120 -342,143 -608,208c-262,64 -323,90 -457,198c-122,97 -166,124 -304,190c-155,74 -245,102 -362,115c-118,13 -161,29 -326,120c-168,93 -260,127 -392,141c-263,28 -281,34 -394,139c-75,70 -112,87 -236,106c-20,3 -65,24 -100,47c-88,57 -150,87 -319,153c-245,97 -354,160 -469,274c-66,66 -172,200 -184,234c-8,21 -26,22 -33,2zm10146,-2457c47,-6 263,-13 481,-15c346,-5 403,-3 452,11c77,23 166,30 207,18c55,-16 312,-135 397,-185c43,-24 112,-59 153,-77c41,-18 149,-67 240,-110c91,-43 239,-105 330,-138c91,-33 201,-75 245,-92c177,-71 455,-152 845,-244c144,-35 248,-74 370,-141c52,-29 144,-72 203,-95l109,-43l-7,-31c-19,-94 -26,-156 -31,-296c-6,-137 -4,-165 15,-243c24,-98 37,-192 46,-352c4,-60 13,-148 20,-195c34,-214 65,-383 84,-446c11,-38 25,-114 31,-168c7,-55 25,-142 41,-195c17,-53 41,-148 54,-211c34,-164 91,-410 120,-515c13,-49 33,-126 44,-170c10,-44 37,-125 58,-180l40,-99l-101,-58c-56,-32 -202,-101 -326,-154c-136,-58 -257,-117 -308,-150l-83,-54l-45,31c-52,36 -120,66 -224,100c-52,17 -85,35 -110,59c-44,45 -229,332 -299,465c-64,121 -113,195 -227,346c-47,63 -101,134 -118,158c-49,70 -162,207 -257,314c-48,53 -102,115 -119,137l-32,40l84,0c130,0 235,39 385,142c81,56 135,112 160,163c31,64 14,58 -177,-58c-186,-113 -249,-139 -356,-145c-69,-3 -103,0 -142,12c-50,17 -55,22 -173,187c-66,93 -147,209 -178,257c-77,116 -289,410 -360,497c-31,39 -70,88 -86,110c-16,22 -52,67 -81,100c-28,33 -57,71 -64,85c-47,93 -108,165 -199,237c-124,100 -191,162 -191,180c0,22 41,113 70,158c110,166 136,278 41,177c-61,-65 -151,-198 -170,-251c-10,-28 -20,-53 -22,-56c-10,-9 -134,17 -190,40c-47,20 -75,25 -149,25c-87,0 -90,1 -90,23c0,13 -6,32 -14,42c-13,18 -14,18 -25,-3c-6,-11 -11,-30 -11,-41c0,-13 -8,-23 -22,-26c-37,-9 -289,-11 -339,-2l-46,8l5,99c4,79 1,104 -11,123c-9,13 -21,53 -27,88c-21,118 -99,253 -144,247c-32,-5 -31,-33 5,-84c62,-91 73,-134 74,-289c0,-138 -1,-141 -33,-209c-78,-165 -266,-410 -382,-497c-36,-27 -94,-63 -130,-81c-56,-27 -78,-33 -158,-36c-168,-8 -256,24 -331,121c-41,53 -44,62 -44,115c1,61 37,179 103,337c42,98 56,145 93,305c14,59 44,149 70,205c43,94 108,317 138,474c9,48 19,69 38,85c14,12 40,36 58,54c34,35 90,59 163,71c61,10 454,2 560,-11zm-2863,-414c43,-9 84,-18 92,-20c8,-3 -26,-25 -75,-49c-149,-75 -289,-167 -292,-193c-2,-14 -53,-65 -140,-141c-196,-171 -242,-216 -249,-251c-5,-30 -7,-30 -62,-28c-60,2 -71,-3 -161,-73c-19,-15 -91,-58 -160,-94c-119,-63 -169,-95 -204,-131c-53,-53 46,117 153,261c149,201 272,343 413,477c136,128 149,138 239,176c123,53 194,69 351,81c10,0 52,-6 95,-15zm8723,-32c-19,-9 -37,-19 -40,-22c-3,-3 -25,-18 -49,-35c-45,-30 -111,-104 -111,-124c0,-6 -4,-11 -10,-11c-11,0 -14,120 -4,158c5,19 13,22 53,22c25,1 73,7 106,14c81,19 97,18 55,-2zm-8280,-25c25,-32 116,-79 226,-116c103,-35 142,-39 151,-14c8,20 -34,55 -91,77c-23,8 -53,20 -68,25c-20,8 -25,15 -21,31c4,14 8,17 13,10c7,-11 41,-21 310,-89c69,-17 134,-37 145,-43c11,-7 49,-27 85,-45l65,-32l-50,-1c-103,-1 -343,-20 -432,-34c-91,-14 -94,-15 -175,-79c-142,-110 -244,-232 -342,-410c-38,-67 -38,-68 -75,-61c-63,10 -64,11 -56,52c4,20 8,46 9,58c2,11 6,25 9,31c3,5 8,21 11,36c3,15 8,37 12,49c5,17 3,20 -12,14c-10,-4 -21,-1 -25,5c-5,9 -18,5 -44,-16l-37,-28l-62,21c-33,12 -121,38 -195,57l-133,35l-34,-21c-44,-27 -143,-137 -150,-166c-7,-28 -8,-28 -62,0l-42,22l76,65c107,91 183,175 234,258c29,47 51,72 63,72c10,0 35,9 55,19c23,11 44,16 52,11c52,-27 158,-16 146,16c-8,21 25,18 187,-22c132,-32 147,-38 142,-55c-3,-10 -1,-27 5,-39c6,-11 7,-20 1,-20c-15,0 -22,-32 -9,-47c17,-21 88,-55 103,-50c28,11 22,87 -8,87c-32,1 -38,16 -22,59c23,65 20,99 -7,99c-13,0 -75,14 -138,31c-188,50 -264,50 -277,1c-6,-21 -16,-23 -47,-11c-15,6 -4,15 55,46c41,22 93,47 116,56c23,9 57,26 77,38c42,26 99,38 185,40c55,1 65,-2 81,-22zm7966,-245c9,-5 13,-94 17,-297c3,-237 8,-313 26,-414c26,-149 69,-324 111,-446c52,-152 97,-312 160,-558c32,-130 95,-354 139,-499c80,-266 117,-416 146,-588c18,-105 65,-300 90,-370c9,-25 38,-126 65,-225c27,-99 52,-188 55,-197c5,-12 2,-18 -8,-18c-8,0 -35,-9 -59,-20c-25,-11 -114,-31 -199,-45c-85,-13 -181,-32 -214,-40c-33,-9 -106,-25 -162,-36c-56,-11 -121,-26 -143,-34c-23,-8 -81,-22 -128,-31c-54,-10 -124,-33 -183,-60c-76,-35 -108,-44 -150,-44c-67,0 -141,26 -173,59c-48,53 -190,275 -178,279c17,5 15,37 -4,74c-14,27 -19,30 -49,25c-33,-5 -35,-4 -61,50c-68,145 -154,447 -259,917c-14,64 -41,164 -60,223c-18,60 -39,146 -45,193c-6,47 -25,135 -40,195c-47,176 -88,416 -105,610c-18,204 -29,284 -52,370c-12,48 -14,96 -10,240c5,161 9,191 36,290c17,61 31,125 31,143c0,29 3,32 20,27c20,-6 297,19 383,35c26,5 154,37 285,71c216,55 250,61 382,68c111,6 153,12 180,26c57,30 132,43 156,27zm-6862,-82c71,-17 151,-34 177,-37c27,-3 49,-9 49,-13c0,-17 -81,-240 -110,-305c-18,-38 -50,-123 -71,-188c-32,-98 -39,-132 -39,-199c0,-75 2,-83 37,-136c50,-75 94,-117 153,-147c119,-61 297,-74 414,-32c197,72 399,269 581,566l50,82l45,-8c25,-4 174,-6 332,-5c286,4 287,4 350,-21c35,-14 89,-28 120,-32c37,-4 61,-12 67,-22c5,-9 22,-24 39,-32c16,-9 83,-59 148,-113c94,-76 128,-111 164,-167c54,-85 99,-147 224,-306c116,-148 334,-449 441,-610c181,-271 403,-567 535,-715c89,-100 321,-402 461,-600c26,-36 80,-128 121,-205c42,-77 98,-174 125,-215c27,-41 75,-114 106,-161c75,-115 115,-149 212,-182c117,-40 161,-62 248,-125c86,-61 117,-97 117,-134c0,-12 9,-34 20,-48c15,-20 20,-41 20,-98l0,-73l-48,7c-55,7 -193,-18 -229,-41c-29,-19 -70,-100 -79,-154l-7,-41l-121,0l-121,0l29,20c37,23 59,64 51,90c-8,26 -12,25 -70,-11c-27,-17 -70,-37 -96,-43c-55,-15 -59,-13 -204,76c-49,30 -146,89 -215,131c-352,214 -584,420 -917,817c-86,102 -212,245 -282,319c-154,163 -243,281 -357,471c-164,273 -176,291 -191,279c-18,-16 -16,-43 7,-89c11,-22 20,-41 20,-44c0,-2 -9,-2 -20,1c-36,10 -22,-24 33,-76c32,-31 80,-96 126,-173c94,-157 183,-275 311,-413c100,-108 262,-301 370,-441c52,-67 74,-93 231,-273c68,-79 250,-244 354,-322c65,-49 166,-113 531,-335c75,-46 80,-50 64,-66c-8,-9 -21,-42 -27,-72c-13,-62 -79,-244 -96,-265c-19,-23 -183,-130 -226,-147c-32,-13 -67,-15 -168,-12c-140,5 -123,0 -423,129c-92,39 -259,102 -360,135c-91,29 -117,44 -79,44c67,0 201,100 270,201c60,88 98,189 72,189c-5,0 -24,-26 -43,-58c-49,-79 -183,-211 -250,-244c-36,-18 -71,-28 -101,-28c-25,0 -50,-5 -56,-11c-7,-7 -41,11 -116,60c-85,58 -125,94 -213,193c-60,67 -130,144 -155,172c-25,28 -94,112 -153,186c-190,239 -226,278 -332,367c-112,95 -158,125 -180,116c-24,-9 -15,-27 29,-55c104,-66 212,-182 368,-398c405,-560 498,-657 751,-783c62,-31 181,-79 263,-108c83,-29 204,-76 270,-104c66,-29 135,-58 153,-65c17,-7 32,-16 32,-20c0,-13 -94,-96 -151,-133c-30,-20 -108,-60 -174,-88c-115,-50 -125,-52 -228,-57l-108,-5l-29,34l-28,34l-18,-32l-19,-33l-120,1c-77,0 -112,3 -99,9c48,19 78,90 38,90c-24,0 -86,-62 -81,-82c4,-16 -1,-18 -42,-18c-27,0 -90,3 -141,7l-93,6l74,37c78,40 169,113 157,126c-15,14 -74,-8 -315,-119c-16,-7 -28,-6 -45,5c-42,28 -292,271 -377,366c-45,50 -85,92 -89,92c-20,0 -250,243 -302,319c-64,94 -110,133 -212,181c-76,36 -132,40 -148,9c-17,-30 -5,-49 30,-49c37,0 86,-20 159,-63c42,-25 67,-52 122,-132c41,-60 112,-144 179,-210c61,-60 148,-153 193,-205c161,-186 377,-391 452,-429c58,-29 257,-50 468,-51l148,0l-18,-31c-25,-44 -137,-144 -188,-169c-84,-40 -340,-80 -520,-80c-62,0 -173,3 -248,7l-137,6l34,23c44,30 83,91 68,106c-20,20 -148,-82 -138,-109c8,-20 -19,-10 -139,51c-83,42 -118,69 -210,156c-60,58 -180,160 -266,228l-156,122l-7,52c-3,29 -6,100 -6,158c0,203 -53,422 -135,563c-56,95 -139,185 -203,220c-110,60 -290,75 -352,29c-27,-20 -30,-21 -30,-5c0,10 14,70 31,133c27,101 30,125 24,195c-10,130 -34,272 -54,330c-21,58 -110,185 -165,233c-47,41 -174,92 -231,92c-88,0 -181,-28 -243,-74c-65,-48 -86,-77 -112,-150c-20,-59 -18,-63 -58,107c-38,159 -78,230 -198,350c-97,97 -131,117 -206,117c-60,0 -117,-23 -191,-76c-28,-20 -75,-45 -105,-55c-31,-11 -64,-27 -74,-36c-17,-15 -20,-15 -48,12c-17,17 -30,39 -30,53c0,17 -26,52 -85,113c-97,102 -120,143 -110,191c13,61 102,312 130,368c37,73 118,198 196,301c35,46 78,111 96,144c61,117 97,403 95,755c-2,182 7,345 24,450c7,40 6,44 -9,32c-34,-28 -59,-184 -68,-417c-4,-121 -12,-263 -18,-315c-40,-367 -64,-447 -175,-582c-79,-96 -163,-222 -211,-318c-87,-172 -165,-449 -165,-581c0,-51 15,-69 59,-69c18,0 21,6 21,47l0,47l29,-40c21,-27 26,-42 19,-51c-15,-18 -1,-48 38,-82l35,-31l-45,0c-32,0 -48,5 -55,17c-7,14 -12,15 -25,4c-13,-11 -33,-7 -123,22c-59,20 -169,50 -243,67c-153,36 -391,119 -398,140c-3,8 1,11 10,7c9,-3 63,-13 121,-22c101,-16 107,-18 152,-60c57,-52 146,-74 203,-50c9,5 24,9 32,11c8,2 22,12 32,23c9,12 21,21 27,21c6,0 11,4 11,9c0,5 8,12 19,16c14,4 20,20 26,78c11,111 13,138 16,197c1,33 11,73 25,100c13,25 24,52 26,60c2,8 5,17 8,20c3,3 18,32 34,64c15,33 41,70 56,83c36,30 70,100 70,143l0,34l-38,-37c-21,-20 -44,-37 -52,-37c-9,1 -4,7 10,15c14,8 19,14 12,15c-8,0 -11,9 -8,26c6,32 16,44 16,20c0,-26 18,-9 25,24c4,17 11,30 16,30c6,0 7,5 4,10c-3,6 -1,10 4,10c6,0 11,6 11,13c0,7 7,22 15,33c13,18 14,18 9,-6l-5,-25l13,23c8,12 17,20 21,16c3,-4 5,3 2,15c-2,11 0,21 5,21c4,0 6,10 3,23c-3,12 -3,19 2,15c11,-10 35,17 35,39c0,11 5,24 12,31c7,7 9,12 5,12c-3,0 13,37 37,83c24,45 47,97 51,116c4,19 14,50 23,70c9,20 22,61 29,91l12,55l-4,-85c-7,-144 -100,-413 -165,-475c-36,-35 -38,-55 -6,-55c54,0 123,106 184,285c39,114 50,203 56,440c9,315 11,342 44,440c16,50 42,116 57,148c28,63 29,93 2,91c-65,-6 69,228 227,395c45,47 159,142 191,158c49,25 391,53 580,47c103,-2 158,-10 259,-34zm6970,-123c-3,-56 -8,-104 -10,-106c-2,-2 -4,46 -4,108c0,68 4,110 10,106c5,-3 7,-48 4,-108zm-8705,-137c80,-23 153,-46 163,-51c18,-10 17,-12 -8,-42c-15,-18 -31,-31 -36,-29c-5,1 -7,-2 -4,-7c4,-5 -2,-14 -11,-20c-11,-6 -13,-11 -5,-11c7,0 10,-5 7,-10c-4,-6 -11,-7 -17,-4c-7,5 -9,1 -5,-9c3,-10 2,-17 -3,-17c-28,0 -45,-94 -22,-118c7,-8 10,-17 7,-22c-3,-4 2,-13 10,-20c8,-7 15,-19 15,-27c0,-8 4,-12 8,-9c5,3 9,0 10,-7c5,-42 12,-73 21,-91c20,-42 51,-153 60,-216c12,-84 12,-182 0,-175c-5,4 -9,28 -9,54c0,98 -72,313 -130,389c-53,69 -137,143 -199,175c-129,68 -213,79 -445,57c-60,-6 -110,-9 -111,-8c-1,2 26,29 60,60l62,58l65,-14c35,-7 78,-21 95,-30c64,-33 86,-24 154,62c34,42 71,92 82,110c13,22 23,30 31,23c6,-5 76,-28 155,-51zm-577,-283c199,6 264,-4 376,-61c139,-70 225,-193 272,-388c16,-68 20,-118 20,-276c0,-207 -9,-258 -64,-356c-13,-23 -21,-46 -19,-53c2,-7 -12,-37 -31,-67c-20,-31 -33,-56 -30,-56c3,0 -9,-26 -27,-57c-18,-32 -41,-76 -52,-98c-22,-44 -156,-184 -178,-186c-29,-3 -35,-5 -89,-31c-55,-26 -111,-51 -120,-53c-3,0 -22,-9 -43,-19c-34,-17 -56,-18 -225,-13c-233,7 -242,9 -242,51c0,34 -15,52 -78,95c-32,22 -34,22 -53,6c-10,-10 -19,-22 -19,-26c0,-4 21,-23 47,-40c26,-18 42,-34 35,-37c-14,-4 -96,40 -141,77l-35,29l27,32c28,32 36,70 16,70c-7,0 -27,-10 -46,-21c-19,-12 -36,-20 -37,-18c-6,7 -47,90 -56,115c-9,22 -6,27 25,45c41,24 53,55 32,77c-14,13 -20,13 -56,-6l-40,-21l-12,42c-14,52 -13,270 1,411c13,127 59,296 81,296c5,0 9,-12 9,-27c1,-24 2,-26 13,-12c7,9 23,16 37,15c20,-1 26,4 28,27c2,19 -1,27 -12,27c-13,0 -10,12 15,63c49,96 99,169 112,164c7,-2 22,0 35,4c19,7 23,15 20,39c-2,22 5,38 32,65c42,44 64,26 22,-19l-27,-29l28,18c23,15 33,16 48,7c29,-18 39,-15 39,13c0,16 11,36 28,51l27,25l-32,-6c-18,-4 -34,-2 -38,5c-3,5 -11,8 -16,5c-5,-4 -9,-4 -9,-1c0,3 46,32 101,65c86,51 103,58 115,46c11,-11 48,-12 186,-8zm956,-10c7,-6 19,-24 26,-41c11,-26 9,-39 -18,-109l-30,-79l-13,38c-7,20 -17,42 -22,48c-9,11 -31,115 -31,148c0,16 5,18 38,12c20,-4 43,-11 50,-17zm-2826,-858c-27,-79 -51,-137 -54,-129c-3,8 1,38 8,65c14,54 84,218 91,212c2,-3 -18,-69 -45,-148zm1072,-809c73,-321 84,-359 113,-402c16,-23 44,-53 62,-65l34,-23l-44,5c-153,17 -261,25 -339,25c-79,0 -90,2 -90,18c1,53 34,235 65,352c33,126 78,321 92,399c6,32 8,29 38,-55c17,-49 48,-163 69,-254zm1373,205c0,-8 -7,-15 -15,-15c-12,0 -12,3 -2,15c7,8 13,15 15,15c1,0 2,-7 2,-15zm-1269,-214c90,-74 219,-122 366,-136c56,-5 76,-11 72,-20c-2,-7 9,-22 25,-34c16,-12 27,-26 24,-32c-4,-5 -1,-9 4,-9c14,0 73,-52 66,-58c-3,-3 4,-11 15,-19c11,-8 20,-18 20,-23c0,-6 7,-18 15,-27c8,-10 14,-20 13,-23c-2,-3 7,-19 20,-37c23,-32 30,-73 12,-73c-6,0 -73,7 -148,16c-129,15 -139,17 -168,46c-36,34 -70,35 -88,3c-11,-20 -26,-35 -36,-35c-3,0 -10,13 -16,29c-9,21 -20,30 -47,35c-46,9 -89,44 -111,93c-16,36 -95,343 -88,343c2,0 24,-18 50,-39zm-1451,-123c-3,-8 -6,-5 -6,6c-1,11 2,17 5,13c3,-3 4,-12 1,-19zm-4167,-14c0,-8 5,-14 10,-14c6,0 10,-6 10,-13c0,-8 11,-24 25,-37c14,-13 25,-28 25,-34c0,-6 9,-17 20,-24c11,-7 20,-19 20,-27c0,-8 4,-15 9,-15c7,0 39,-64 68,-138c4,-9 -4,-8 -30,4c-31,15 -43,34 -106,164c-72,151 -79,166 -61,155c6,-3 10,-13 10,-21zm4121,-165c-5,-13 -10,-19 -10,-12c-1,15 10,45 15,40c3,-2 0,-15 -5,-28zm-14,-51c-3,-8 -6,-5 -6,6c-1,11 2,17 5,13c3,-3 4,-12 1,-19zm-12,-60c-7,-33 -25,-62 -25,-41c0,15 21,73 27,73c2,0 2,-15 -2,-32zm-3754,-98c5,0 9,-4 9,-10c0,-5 -20,0 -45,12c-30,15 -48,31 -55,51c-5,17 -10,32 -10,34c0,2 21,-17 46,-42c25,-25 50,-45 55,-45zm3724,-30c-31,-148 -56,-320 -60,-405c-5,-111 -109,-962 -131,-1065c-23,-110 -24,-114 -37,-101c-33,33 -46,1 -56,-135l-6,-81l-89,34c-50,19 -109,48 -131,63c-42,29 -152,68 -255,90c-56,13 -164,63 -280,130c-36,21 -121,66 -190,100c-111,56 -192,104 -365,215c-55,36 -148,115 -142,121c2,3 20,-3 40,-11c20,-8 40,-16 44,-16c5,-1 13,-3 18,-5c6,-1 26,-7 45,-13c31,-8 99,-35 193,-74c15,-7 27,-15 27,-19c0,-5 6,-8 13,-8c8,0 39,-18 71,-40c31,-22 59,-40 62,-40c4,0 54,-36 149,-107c113,-85 234,-145 347,-173c121,-30 270,-24 353,15c30,14 96,75 81,75c-5,0 -1,11 7,24c9,13 18,41 22,62c7,49 21,130 29,169c16,75 66,339 80,425c8,52 18,113 22,135c4,22 7,43 6,47c-1,4 3,33 9,65c6,32 12,67 14,78c1,11 6,43 11,70c4,28 7,53 6,58c-1,4 2,7 6,7c4,0 8,8 8,18c0,18 38,192 56,257c7,22 11,43 10,47c-3,11 18,62 23,57c2,-2 -3,-34 -10,-69zm1762,54c-3,-3 -12,-4 -19,-1c-8,3 -5,6 6,6c11,1 17,-2 13,-5zm10433,-209c7,-20 13,-42 14,-48c2,-7 6,-19 9,-27c13,-31 48,-172 44,-176c-7,-7 -107,304 -107,333c0,13 26,-41 40,-82zm-8647,-92c105,-87 200,-223 217,-311c6,-31 18,-86 27,-122c23,-100 32,-295 17,-355c-7,-27 -18,-92 -24,-144c-6,-52 -14,-99 -17,-105c-4,-6 -9,-69 -13,-141c-4,-109 -7,-129 -20,-126c-8,2 -64,14 -125,28c-115,25 -200,60 -230,93c-28,31 -134,370 -159,511c-6,34 -5,36 18,32c30,-6 150,32 167,53c17,21 5,192 -19,274c-38,129 -94,204 -148,198c-33,-4 -42,-39 -11,-44c24,-3 55,-32 73,-67c20,-37 54,-201 54,-258l0,-47l-44,-11c-25,-6 -53,-11 -62,-11c-10,0 -25,-7 -35,-16c-21,-19 -17,-31 -64,186c-19,91 -35,188 -35,217l0,51l53,17c28,10 75,34 102,55c81,61 122,78 191,79c34,1 50,-6 87,-36zm-537,-118c19,-4 22,-14 27,-72c2,-38 23,-149 45,-248c22,-99 39,-181 38,-182c-1,-1 -45,8 -97,21c-141,35 -202,70 -275,157c-32,39 -34,45 -34,118c0,70 8,105 44,206c3,10 208,10 252,0zm1337,-244c57,-26 72,-39 127,-110c85,-112 96,-142 116,-314c17,-148 17,-149 -4,-225c-28,-98 -52,-202 -52,-225c0,-11 11,-23 29,-30l28,-10l-35,-50c-19,-27 -46,-79 -60,-115c-23,-60 -26,-85 -30,-244c-3,-157 -6,-178 -20,-178c-10,0 -60,29 -113,65c-77,52 -139,109 -298,274l-201,209l0,89c0,79 12,182 26,222c3,9 19,-1 53,-32c52,-49 113,-74 156,-63c20,5 33,21 53,64c26,55 27,63 24,200c-4,235 -32,315 -114,329c-28,4 -40,1 -58,-17l-22,-22l7,24c18,58 35,86 73,120c36,33 60,43 137,61c57,13 116,6 178,-22zm-369,-206c11,-8 33,-15 48,-15c43,0 51,-33 52,-210c1,-181 -9,-220 -55,-220c-38,0 -149,92 -149,123c0,44 69,337 80,337c3,0 14,-7 24,-15zm8621,-254c86,-31 84,-38 -7,-43l-56,-3l-21,43c-24,49 -26,59 -8,44c7,-6 49,-24 92,-41zm-7951,-448c4,-4 55,-8 114,-8c148,0 197,-18 283,-104c153,-153 219,-364 219,-696c0,-136 -3,-168 -20,-213c-29,-75 -27,-110 7,-123c38,-14 49,-7 77,56l26,55l152,-129c156,-131 205,-177 197,-185c-3,-3 -169,-2 -369,2l-365,7l-125,53c-145,62 -258,134 -280,177c-31,64 -49,835 -19,835c4,0 41,-47 82,-104c74,-104 75,-105 82,-184c11,-124 5,-138 -69,-172c-84,-37 -102,-79 -44,-99c28,-10 39,-8 87,16c86,44 97,65 93,186c-4,152 -12,175 -98,288c-42,55 -86,105 -100,111c-13,6 -24,18 -24,27c0,21 55,137 69,145c15,10 14,53 -1,59c-9,4 -7,6 3,6c9,1 19,-2 23,-6zm5004,-71c15,-10 10,-23 -32,-100l-29,-52l-89,0c-88,0 -88,0 -88,25c0,30 22,76 45,95c30,25 168,48 193,32z"/>
   <path id="svg_3" d="m10575.29411,16481.70615c0,-1 14,-42 31,-91c30,-86 30,-92 28,-253c-2,-144 0,-166 14,-174c32,-18 40,24 34,176c-5,103 -12,157 -28,205c-26,79 -56,140 -69,140c-6,0 -10,-1 -10,-3z"/>
   <path id="svg_4" d="m10730.29411,16274.70615c-4,-6 -4,-66 0,-133c3,-71 2,-135 -4,-154c-12,-40 6,-61 38,-43c19,10 21,19 20,118c-1,155 -27,256 -54,212z"/>
   <path id="svg_5" d="m13799.29411,14335.70615c-67,-25 -105,-45 -143,-77c-64,-53 -29,-59 61,-10c35,19 96,44 136,56c43,13 71,27 69,34c-6,18 -68,16 -123,-3z"/>
   <path id="svg_6" d="m11529.29411,14879.70615c-29,-32 -36,-35 -87,-35c-31,0 -67,4 -81,10c-27,10 -56,-8 -56,-34c0,-34 75,-66 155,-66c62,0 98,23 115,74c10,32 5,86 -9,86c-3,0 -20,-16 -37,-35z"/>
   <path id="svg_7" d="m10730.29411,13824.70615c-35,-37 -80,-46 -148,-31c-110,25 -105,26 -113,-4c-5,-22 -2,-31 17,-46c53,-40 191,-57 242,-30c33,17 60,68 55,105c-4,40 -19,42 -53,6z"/>
   <path id="svg_8" d="m12830.29411,12929.70615c-5,-2 -57,-5 -115,-7c-102,-3 -105,-4 -108,-27c-2,-13 2,-28 10,-32c19,-12 181,-11 215,2c30,11 73,47 73,61c0,8 -55,10 -75,3z"/>
   <path id="svg_9" d="m10063.29411,12787.70615c-75,-94 -80,-97 -136,-90c-26,3 -57,9 -69,12c-16,5 -23,2 -28,-15c-9,-29 18,-57 69,-71c83,-22 137,5 182,93c22,44 47,128 39,136c-1,2 -28,-27 -57,-65z"/>
   <path id="svg_10" d="m12790.29411,12800.70615c-32,-23 -12,-46 41,-46c51,0 87,21 77,46c-7,18 -93,19 -118,0z"/>
   <path id="svg_11" d="m12929.29411,12580.70615c-24,-18 -9,-36 32,-36c28,0 35,4 32,16c-4,24 -42,35 -64,20z"/>
   <path id="svg_12" d="m9645.29411,12203.70615c0,-18 57,-113 80,-134c32,-29 25,3 -17,78c-34,60 -63,85 -63,56z"/>
   <path id="svg_13" d="m12614.29411,11674.70615c-61,-41 -119,-96 -119,-113c0,-19 32,-27 56,-14c40,22 106,82 120,108c29,58 10,64 -57,19z"/>
   <path id="svg_14" d="m12809.29411,11606.70615c-23,-15 -94,-104 -94,-118c0,-22 37,-17 61,9c58,60 83,142 33,109z"/>
   <path id="svg_15" d="m6819.29411,15655.70615c-41,-25 -46,-34 -30,-57c13,-17 7,-22 -70,-67c-190,-110 -295,-255 -383,-530c-29,-90 -31,-108 -31,-235c1,-153 19,-234 54,-240c17,-4 18,1 12,44c-3,27 -9,99 -12,159c-8,141 12,227 94,397c85,177 164,259 337,346c57,29 101,44 153,51c79,10 102,22 102,52c0,29 -45,42 -118,35c-62,-5 -63,-5 -56,17c3,12 7,26 8,31c2,18 -29,16 -60,-3z"/>
   <path id="svg_16" d="m7097.29411,15638.70615c-12,-8 -22,-21 -22,-28c0,-20 36,-48 57,-44c18,3 46,65 36,81c-7,12 -47,8 -71,-9z"/>
   <path id="svg_17" d="m7187.29411,15531.70615c-8,-10 9,-31 73,-90c135,-124 184,-250 185,-469c0,-163 -33,-296 -99,-403c-21,-33 -54,-92 -74,-130c-46,-88 -140,-192 -203,-227c-27,-14 -93,-36 -146,-48c-128,-29 -198,-23 -240,22c-16,17 -48,43 -72,58c-24,15 -63,55 -86,89c-31,44 -48,60 -59,56c-9,-4 -28,-9 -43,-12c-16,-3 -28,-8 -28,-11c0,-20 87,-145 125,-181c155,-143 474,-176 652,-69c51,31 93,87 93,124c0,14 -9,9 -42,-22c-74,-69 -86,-72 -19,-4c35,36 86,99 114,140c60,90 141,283 165,395c20,96 22,319 3,410c-30,139 -124,285 -228,354c-52,35 -56,36 -71,18z"/>
   <path id="svg_18" d="m6839.29411,15369.70615c-4,-9 -4,-42 -2,-74c4,-58 22,-96 39,-85c10,6 12,117 3,152c-7,25 -32,30 -40,7z"/>
   <path id="svg_19" d="m7169.29411,15257.70615c-53,-53 -204,-288 -204,-318c0,-3 6,-5 13,-5c8,0 48,51 89,113c41,61 94,134 117,162c64,78 53,116 -15,48z"/>
   <path id="svg_20" d="m6523.29411,15113.70615c-10,-5 -18,-20 -18,-33c0,-25 57,-89 75,-83c18,6 16,61 -5,95c-21,35 -26,37 -52,21z"/>
   <path id="svg_21" d="m6452.29411,14876.70615c-16,-17 -15,-20 8,-42c14,-13 27,-22 29,-19c14,14 4,79 -13,79c-4,0 -15,-8 -24,-18z"/>
   <path id="svg_22" d="m6899.29411,14805.70615c-18,-11 -39,-30 -48,-42c-22,-32 -21,-94 3,-118c19,-19 18,-21 -20,-158c-22,-76 -41,-144 -44,-150c-5,-15 32,-53 51,-53c15,0 34,63 70,225c14,66 30,127 35,135c5,8 18,29 29,45c11,17 20,45 20,63c0,70 -36,90 -96,53z"/>
   <path id="svg_23" d="m6437.29411,14528.70615c-28,-19 -28,-39 0,-58c29,-20 50,-3 46,37c-4,37 -16,42 -46,21z"/>
   <path id="svg_24" d="m4958.29411,13693.70615c-28,-28 -5,-106 34,-115c33,-9 38,0 24,45c-16,55 -42,86 -58,70z"/>
   <path id="svg_25" d="m4909.29411,13480.70615c-10,-25 4,-65 32,-93c40,-40 51,-16 20,45c-29,57 -43,70 -52,48z"/>
   <path id="svg_26" d="m6128.29411,13428.70615c-11,-30 91,-307 120,-326c19,-12 27,-9 27,10c1,24 -122,332 -132,332c-5,0 -11,-7 -15,-16z"/>
   <path id="svg_27" d="m4840.29411,13381.70615c-11,-27 50,-137 76,-137c16,0 10,25 -22,83c-33,62 -46,75 -54,54z"/>
   <path id="svg_28" d="m6612.29411,13387.70615c-11,-10 -8,-62 3,-84c24,-44 45,-6 30,52c-10,38 -19,46 -33,32z"/>
   <path id="svg_29" d="m4835.29411,13159.70615c-24,-29 42,-175 80,-175c11,0 20,7 20,15c0,15 -77,175 -84,175c-2,0 -9,-7 -16,-15z"/>
   <path id="svg_30" d="m4797.29411,12952.70615c6,-51 84,-221 118,-256c61,-64 25,53 -83,267c-7,14 -18,26 -26,29c-11,4 -13,-5 -9,-40z"/>
   <path id="svg_31" d="m4759.29411,12741.70615c-10,-27 13,-104 66,-215c59,-124 85,-162 111,-162c10,0 19,2 19,5c0,3 -20,46 -45,95c-24,49 -61,128 -81,177c-41,100 -59,127 -70,100z"/>
   <path id="svg_32" d="m5918.29411,12703.70615c-20,-20 -17,-118 3,-126c32,-12 45,54 21,110c-10,23 -14,26 -24,16z"/>
  </g>
 </g>
</svg>