<svg width="620" height="1009.9999999999999" xmlns="http://www.w3.org/2000/svg" preserveAspectRatio="xMidYMid meet" version="1.0">

 <g>
  <title>Layer 1</title>
  <g id="svg_1" fill="#000000" transform="translate(0 1200) scale(0.1 -0.1)">
   <path id="svg_2" d="m2964.73438,11928.70508c-7,-18 -36,-19 -80,-3c-28,10 -36,9 -51,-3c-19,-17 -147,-21 -170,-6c-7,4 -21,3 -31,-2c-11,-6 -22,-8 -25,-5c-3,3 -12,2 -19,-2c-7,-5 -17,-9 -23,-10c-45,-9 -111,-26 -125,-34c-13,-7 -21,-5 -30,5c-11,14 -16,14 -37,0c-13,-9 -32,-13 -42,-10c-21,6 -53,-4 -46,-15c3,-4 -6,-11 -20,-14c-14,-4 -25,-11 -25,-16c0,-5 -23,-16 -52,-25c-28,-8 -55,-20 -59,-27c-4,-6 -27,-13 -51,-15c-23,-3 -54,-12 -68,-21c-14,-9 -31,-15 -37,-14c-7,2 -13,-6 -13,-18c0,-21 -33,-29 -45,-10c-5,8 -11,7 -20,0c-16,-13 -39,-4 -30,11c4,5 1,9 -4,9c-6,0 -11,-7 -11,-15c0,-9 -9,-15 -22,-15c-32,0 -50,-14 -43,-32c4,-11 -1,-18 -15,-23c-11,-4 -38,-25 -60,-47c-26,-27 -49,-42 -71,-44c-18,-2 -36,-9 -40,-15c-5,-8 -12,-8 -27,0c-11,6 -28,8 -38,4c-12,-4 -15,-3 -10,5c4,7 1,12 -9,12c-12,0 -15,-6 -10,-20c5,-16 2,-20 -19,-20c-30,0 -54,-23 -73,-70c-8,-19 -24,-45 -35,-56c-18,-20 -21,-21 -49,-7c-27,13 -32,13 -54,-1c-13,-9 -34,-16 -45,-16c-12,0 -24,-9 -30,-24c-5,-14 -19,-26 -32,-28c-18,-2 -24,-11 -29,-40c-6,-41 -54,-101 -84,-106c-30,-5 -48,-27 -49,-59c-1,-23 -5,-27 -24,-25c-13,2 -25,-3 -28,-12c-3,-8 -12,-12 -20,-9c-9,3 -14,-2 -14,-13c-1,-11 -18,-32 -40,-49c-21,-16 -41,-39 -44,-50c-3,-10 -8,-16 -12,-12c-4,3 -16,-11 -26,-33c-11,-22 -25,-40 -31,-40c-13,0 -87,-80 -87,-94c0,-6 -9,-17 -21,-24c-13,-9 -18,-19 -14,-32c4,-13 0,-20 -15,-25c-24,-8 -26,-24 -5,-51c8,-10 15,-31 15,-46c0,-42 -23,-122 -39,-134c-10,-7 -12,-21 -8,-42c5,-27 3,-32 -12,-32c-10,0 -24,-7 -31,-15c-7,-8 -18,-15 -25,-15c-6,0 -20,-9 -30,-20c-10,-11 -30,-20 -44,-20c-15,0 -37,-7 -49,-16c-18,-12 -20,-19 -12,-34c8,-15 6,-21 -7,-28c-14,-9 -15,-13 -4,-26c11,-13 10,-23 -8,-58c-18,-38 -19,-45 -6,-64c13,-20 12,-25 -5,-47c-11,-14 -20,-29 -20,-34c0,-5 -15,-7 -32,-5c-26,3 -39,-3 -62,-27l-30,-31l24,-25l24,-26l-44,-42c-25,-23 -58,-49 -73,-57c-19,-9 -26,-19 -21,-29c4,-9 7,-25 7,-36c1,-11 7,-24 14,-30c14,-11 27,-183 15,-201c-4,-7 -18,-14 -32,-15c-20,-3 -25,-10 -25,-31c-1,-15 -3,-30 -6,-33c-3,-3 -3,-26 1,-51c6,-40 5,-47 -11,-51c-18,-5 -25,-25 -18,-48c1,-5 3,-24 4,-41c1,-17 5,-35 8,-41c18,-29 35,-98 26,-109c-5,-6 -6,-26 -3,-43c6,-27 3,-33 -15,-38c-14,-4 -18,-9 -12,-17c5,-6 12,-57 15,-114c6,-87 4,-103 -9,-108c-8,-3 -12,-11 -8,-18c11,-17 16,-80 12,-158c-2,-40 13,-108 24,-108c19,0 36,-34 25,-48c-13,-15 -17,-111 -6,-118c4,-3 8,-13 8,-22c0,-9 25,-36 56,-60c53,-41 56,-45 50,-77c-6,-28 -2,-39 25,-69c17,-20 36,-33 41,-29c37,22 101,-8 119,-55c7,-18 14,-21 34,-16c20,5 25,2 25,-11c0,-16 7,-17 57,-12c36,4 60,12 65,21c10,18 38,22 38,6c0,-5 6,-10 14,-10c8,0 16,-6 19,-14c8,-20 95,-66 126,-66c15,0 32,5 38,11c17,17 83,-11 95,-40c6,-17 12,-21 20,-13c6,6 17,8 24,5c8,-3 21,0 29,7c12,10 15,10 15,0c0,-6 6,-10 13,-7c6,2 12,15 12,28c1,20 5,23 25,21c14,-2 29,-8 34,-13c6,-5 17,-2 28,8c14,13 20,13 33,3c12,-10 21,-8 50,9c19,11 42,18 50,15c22,-9 38,5 25,21c-9,10 -5,16 17,27c15,7 28,20 28,28c0,8 10,16 23,18c12,2 22,8 22,14c0,6 9,-1 20,-15c11,-14 20,-32 20,-40c0,-9 5,-19 10,-22c14,-8 81,34 78,48c-1,7 4,30 10,52c15,52 15,56 -3,49c-8,-4 -15,-1 -15,6c0,8 9,10 26,6c28,-7 64,15 64,39c0,7 7,16 16,19c11,4 14,13 10,30c-4,16 -1,26 9,30c8,3 15,14 15,24c0,16 28,49 98,114c12,12 22,24 22,27c0,4 -10,11 -22,16c-23,10 -25,19 -29,117c-1,15 -5,25 -10,22c-15,-9 -10,14 14,65c18,40 26,49 47,47c21,-1 26,5 34,38c9,33 7,44 -13,78c-16,29 -20,43 -12,51c6,6 11,20 11,30c0,10 10,27 23,37c18,15 20,21 10,31c-19,19 -16,47 7,59c11,6 18,15 15,21c-12,18 6,70 23,67c11,-2 19,8 25,34c5,20 22,51 38,67c16,17 29,34 29,38c1,5 11,21 24,37c14,16 22,34 20,41c-3,6 4,19 15,29c11,10 17,24 14,32c-3,8 -2,14 3,13c31,-5 56,3 61,21c3,11 13,20 22,20c9,0 29,14 44,31c20,24 25,35 17,49c-11,20 -4,30 20,30c25,0 48,29 31,39c-10,7 -8,15 10,36c42,47 55,49 79,10c28,-46 50,-44 80,5c25,41 31,45 44,33c13,-14 47,-13 52,2c8,19 33,19 40,1c10,-25 35,-27 55,-4c10,13 18,18 19,13c0,-18 44,-12 62,8c11,13 32,19 65,20c26,1 54,6 61,11c9,5 18,1 27,-10c13,-18 14,-18 21,-1c3,10 13,16 20,13c7,-3 20,1 28,9c7,8 26,17 41,21c17,4 32,19 43,40c17,37 33,42 52,19c7,-8 16,-15 21,-15c12,0 44,33 52,53c3,9 12,17 19,16c10,0 10,-2 1,-6c-7,-2 -13,-9 -13,-14c0,-10 28,-8 46,4c30,18 35,-31 17,-170c-4,-34 -2,-43 10,-43c9,0 19,5 22,10c4,7 16,1 30,-14c14,-16 30,-23 39,-20c10,4 18,-1 22,-11c5,-13 14,-15 36,-11c24,5 31,2 35,-14c3,-11 12,-21 19,-21c8,-1 19,-3 24,-4c6,-1 22,-3 36,-4c23,-1 25,-4 20,-26c-5,-19 1,-35 20,-60c14,-19 32,-35 39,-35c18,0 38,-27 26,-34c-15,-10 74,-93 107,-101c24,-5 31,-13 36,-38c10,-49 10,-50 2,-74c-5,-16 -2,-23 14,-28c15,-5 19,-12 15,-25c-3,-10 -2,-27 4,-37c17,-33 34,-101 27,-111c-3,-6 -2,-13 3,-16c4,-3 9,-31 9,-62c0,-36 6,-62 16,-73c15,-16 15,-22 1,-53c-9,-23 -12,-46 -7,-64c9,-34 8,-101 -2,-111c-3,-3 -6,-21 -6,-39c0,-21 -7,-38 -18,-46c-44,-31 -55,-98 -22,-132c10,-12 22,-40 26,-63c6,-39 4,-43 -18,-52c-63,-24 -79,-85 -36,-140c27,-36 22,-57 -19,-82c-21,-12 -40,-24 -42,-25c-2,-2 2,-10 9,-19c10,-12 10,-21 -4,-48c-8,-17 -16,-27 -16,-21c0,6 -11,12 -24,12c-19,0 -24,-5 -20,-22c2,-11 8,-22 14,-24c13,-5 13,-22 1,-22c-5,0 -13,9 -16,20c-6,20 -35,28 -35,10c0,-5 4,-10 8,-10c5,0 14,-12 20,-26c8,-16 17,-22 25,-18c9,6 9,4 1,-7c-13,-16 -23,-56 -30,-114c-4,-35 -24,-65 -44,-65c-4,0 -13,19 -20,43c-7,23 -17,46 -22,52c-4,5 -8,26 -8,46c0,21 -3,40 -7,42c-5,3 -36,-4 -70,-15c-58,-18 -63,-22 -69,-55c-4,-19 -19,-47 -34,-62c-15,-14 -31,-37 -35,-51c-10,-34 -24,-50 -44,-50c-22,0 -66,-46 -80,-82c-8,-21 -17,-27 -34,-26c-30,3 -95,-47 -103,-79c-5,-20 -11,-23 -29,-19c-15,4 -25,1 -29,-9c-3,-8 -12,-15 -19,-15c-8,0 -22,-9 -33,-21c-10,-12 -38,-32 -61,-46c-50,-29 -55,-56 -23,-109c22,-34 15,-50 -19,-39c-10,3 -24,-1 -31,-10c-15,-19 -57,-19 -100,-2c-32,14 -80,12 -80,-4c0,-5 7,-6 15,-3c23,9 31,-25 9,-41c-16,-12 -21,-12 -31,1c-17,23 -36,6 -31,-27c5,-31 -1,-36 -21,-16c-10,10 -12,9 -9,-3c2,-9 -6,-16 -22,-18c-14,-2 -29,-8 -35,-14c-7,-7 1,-8 25,-3l35,7l-24,-21c-13,-11 -28,-21 -33,-21c-5,0 -7,-4 -4,-9c12,-19 -7,-41 -46,-53c-21,-6 -51,-25 -65,-42c-14,-17 -35,-34 -47,-37c-11,-3 -20,-11 -19,-17c2,-7 -7,-12 -20,-12c-32,0 -67,-27 -60,-46c7,-19 -42,-63 -70,-64c-13,0 -17,-5 -13,-18c4,-12 -7,-30 -34,-57c-22,-21 -40,-47 -40,-56c0,-10 -19,-30 -42,-46c-28,-18 -44,-37 -46,-53c-2,-14 -12,-32 -23,-40c-11,-9 -21,-29 -23,-44c-4,-34 -43,-61 -64,-44c-16,14 -27,3 -36,-34c-4,-19 -2,-28 6,-28c8,0 6,-5 -4,-11c-10,-5 -18,-17 -18,-25c0,-8 -11,-24 -25,-36c-20,-17 -22,-24 -13,-35c9,-11 9,-16 -1,-22c-7,-5 -12,-11 -12,-15c3,-21 -1,-27 -16,-24c-27,4 -43,-10 -43,-39c0,-18 -4,-24 -15,-19c-21,8 -19,-11 5,-45c21,-28 31,-75 31,-138c0,-19 4,-43 10,-52c15,-28 -18,-93 -53,-107c-16,-6 -32,-20 -35,-31c-3,-12 -10,-21 -15,-21c-6,0 -8,6 -5,14c3,8 -4,18 -18,24c-25,12 -35,7 -35,-16c0,-10 7,-13 23,-9c21,6 21,5 3,-8c-10,-8 -24,-16 -30,-18c-8,-3 -8,-8 0,-18c18,-22 24,-59 10,-59c-18,0 -56,-43 -56,-64c0,-29 -32,-119 -51,-144c-10,-13 -16,-29 -13,-37c3,-7 1,-16 -5,-20c-6,-3 -11,-17 -11,-31c0,-13 -4,-24 -9,-24c-5,0 -21,-37 -35,-81c-14,-45 -31,-88 -37,-95c-6,-8 -9,-14 -7,-14c3,0 -1,-26 -9,-57c-17,-69 -17,-66 -10,-120c3,-24 1,-45 -3,-48c-5,-3 -6,-13 -3,-21c3,-9 0,-20 -7,-24c-11,-7 -11,-11 0,-25c8,-10 13,-40 12,-83c-4,-225 8,-312 42,-312c22,0 26,-26 10,-65c-10,-26 -12,-41 -4,-55c5,-10 10,-30 10,-44c0,-14 5,-28 10,-31c6,-4 7,-12 1,-22c-11,-21 -3,-53 23,-82c18,-20 18,-23 4,-18c-10,4 -18,2 -18,-3c0,-6 6,-10 14,-10c8,0 24,-12 35,-27c19,-23 24,-25 46,-15c20,9 25,8 30,-7c8,-26 79,-71 110,-71c14,0 28,-7 31,-15c4,-8 11,-15 16,-15c5,0 21,-9 35,-20c37,-29 56,-26 49,7c-8,37 7,61 27,45c11,-9 26,-10 55,-4c43,10 55,6 65,-20c7,-20 106,-85 144,-94c16,-4 33,-11 39,-16c8,-5 14,-3 18,7c7,19 32,20 39,1c4,-9 14,-12 27,-9c13,3 25,0 30,-7c6,-10 14,-8 36,9c29,23 40,19 46,-14c3,-18 38,-45 59,-45c4,0 20,20 34,45c24,40 28,43 42,30c11,-11 19,-13 28,-5c7,6 20,8 29,4c12,-5 16,0 16,20c0,33 32,50 83,43c31,-4 44,-2 53,11c10,14 18,15 52,6c37,-10 40,-9 68,22c16,18 36,33 44,34c8,0 21,9 27,19c7,11 22,21 35,23c14,2 24,12 28,27c4,16 17,28 37,35c28,10 61,39 111,101c9,10 12,32 8,63c-5,50 24,132 47,132c7,0 4,5 -5,11c-26,15 -22,49 12,112c17,32 27,63 23,73c-3,9 -2,19 3,23c21,14 33,60 24,90c-6,22 -5,31 3,31c8,0 7,3 -2,9c-10,6 -10,10 -1,16c6,4 9,13 6,21c-3,7 -1,16 4,19c6,4 10,13 10,22c0,9 11,25 25,37c15,13 26,35 28,55c3,24 12,38 29,47c13,7 33,30 44,51c10,21 31,51 47,66c15,16 27,37 27,48c0,11 8,23 18,26c9,4 33,24 53,45c19,21 41,38 48,38c15,0 34,18 50,48c6,12 16,22 22,22c6,0 22,14 36,30c13,16 33,30 43,30c12,0 20,8 22,23c2,15 13,25 36,32c17,5 32,14 32,21c0,6 11,20 25,30c13,10 29,31 34,46c6,17 17,28 28,28c24,0 43,19 43,42c0,10 11,25 25,34c15,10 25,26 25,41c0,45 17,63 59,63c22,0 44,6 51,15c7,8 23,15 36,15c13,0 28,6 33,13c6,6 30,37 54,67c41,52 46,55 85,53c33,-1 42,2 47,18c4,10 10,19 15,19c5,0 27,17 48,38c52,49 74,67 95,75c9,3 17,13 17,21c0,40 44,91 80,92c15,1 43,18 69,43c23,22 47,41 52,41c5,0 9,5 9,11c0,16 31,38 52,39c9,0 23,8 30,19c7,10 33,27 58,39c32,14 48,29 57,51c6,17 18,31 25,31c15,0 58,44 58,59c0,5 11,16 25,25c17,11 27,29 31,56c6,35 12,42 49,59c24,11 48,29 55,40c12,23 5,61 -11,61c-5,0 -9,5 -9,10c0,6 13,10 30,10c24,0 35,9 61,48c18,26 41,53 51,60c10,7 18,17 18,22c0,11 59,70 71,70c5,0 9,6 9,14c0,8 11,23 25,34c13,11 22,22 18,25c-3,4 2,18 11,32c9,14 14,30 11,35c-3,6 6,25 20,45c15,19 24,38 21,44c-3,5 8,14 24,20c31,10 42,41 15,41c-20,0 -19,10 4,39c10,13 24,22 32,19c19,-6 59,45 59,77c0,21 4,26 21,23c19,-3 22,2 24,44c4,54 10,68 31,68c8,0 14,10 14,24c0,14 5,28 10,31c6,4 8,11 4,16c-3,6 2,20 13,32c11,12 30,39 44,59c13,21 27,38 32,38c4,0 7,7 7,16c0,10 6,14 14,11c10,-4 13,-1 9,9c-10,25 7,84 24,84c12,0 14,7 9,31c-4,23 -1,38 14,56c11,14 17,29 14,34c-5,9 23,58 45,75c9,7 12,23 9,47c-3,27 0,37 10,37c8,0 12,6 9,14c-3,8 7,27 23,42c15,16 25,34 23,41c-3,7 4,28 15,47c11,19 18,44 15,55c-3,11 4,35 15,53c13,23 17,39 12,53c-13,31 -11,65 3,65c17,0 13,70 -4,80c-8,6 -8,9 0,14c6,4 11,15 11,24c0,10 8,33 19,52c14,27 16,42 9,68c-5,19 -7,45 -4,58c4,14 2,24 -4,24c-5,0 -10,7 -10,15c0,8 9,15 20,15c11,0 20,6 20,13c0,7 11,23 25,35c30,26 32,48 5,57c-25,8 -25,15 3,73c25,51 28,117 8,165c-15,37 -14,44 5,51c12,5 14,9 5,20c-9,10 -8,29 3,75c13,54 13,63 0,68c-8,3 -14,19 -14,38c0,18 -7,38 -15,45c-10,8 -13,24 -9,55c3,25 0,46 -6,50c-5,3 -10,18 -10,32c0,14 -8,32 -17,39c-12,8 -18,26 -18,51c0,32 -5,40 -29,52c-24,11 -26,15 -13,22c12,7 14,20 11,54c-4,35 -2,46 10,51c25,10 19,24 -10,24c-19,0 -25,4 -20,15c4,10 -1,15 -14,15c-12,0 -20,7 -20,17c0,9 -7,24 -15,33c-12,13 -13,23 -6,43c10,26 4,64 -13,84c-37,42 -37,43 -23,63c12,18 12,25 -1,55c-11,25 -19,31 -28,24c-13,-11 -22,11 -31,76c-3,22 -9,42 -14,43c-5,2 -9,10 -9,18c0,13 -26,69 -91,198c-83,164 -310,473 -356,484c-7,2 -13,8 -13,14c0,34 -326,318 -365,318c-8,0 -15,3 -17,8c-6,16 -149,103 -158,97c-6,-4 -23,3 -39,14c-16,12 -35,21 -43,21c-7,1 -35,16 -62,34c-27,19 -55,32 -63,29c-7,-3 -13,0 -13,6c0,10 -40,32 -65,36c-5,0 -9,6 -8,13c2,7 -9,12 -28,12c-36,0 -138,46 -146,66c-3,9 -21,14 -49,14c-31,0 -44,4 -44,14c0,16 -21,26 -56,26c-13,0 -24,3 -24,8c0,4 -12,15 -26,25c-21,15 -28,16 -40,6c-13,-11 -18,-10 -25,4c-6,9 -20,17 -32,17c-13,0 -28,5 -34,11c-7,7 -24,13 -40,14c-60,5 -111,25 -116,46c-5,18 -8,19 -27,7c-17,-11 -22,-11 -29,1c-5,7 -14,10 -20,6c-7,-4 -18,-2 -26,5c-9,7 -15,8 -20,1c-4,-7 -17,-3 -35,11c-16,12 -44,23 -62,24c-89,8 -115,12 -135,17c-13,3 -25,1 -29,-4c-9,-15 -97,1 -111,20c-10,14 -13,14 -31,-2c-15,-14 -25,-15 -45,-8c-18,7 -36,7 -57,0c-35,-13 -193,5 -198,21c-6,16 -62,12 -68,-5zm2276,-1475c0,-5 -5,-10 -11,-10c-5,0 -7,5 -4,10c3,6 8,10 11,10c2,0 4,-4 4,-10zm-17,-37c18,-9 35,-16 40,-15c4,1 7,-3 7,-9c0,-6 6,-9 14,-6c15,6 40,-15 31,-25c-3,-3 8,-20 25,-38c33,-36 39,-53 13,-43c-11,4 -14,3 -9,-5c4,-7 18,-12 32,-12c24,0 32,-14 14,-25c-5,-3 -10,-1 -10,4c0,6 -9,11 -20,11c-12,0 -24,9 -28,21c-7,18 -10,19 -20,6c-10,-12 -9,-16 9,-20c11,-3 23,-15 26,-26c3,-11 10,-18 15,-15c17,11 56,-6 61,-26c10,-37 -56,-51 -75,-16c-6,11 -11,22 -10,24c1,1 2,11 2,22c0,14 -5,18 -16,13c-10,-3 -26,5 -43,23c-37,39 -73,69 -94,77c-9,3 -17,13 -17,21c0,8 -5,16 -11,18c-13,4 6,58 21,58c6,0 25,-8 43,-17zm223,-298c1,-11 4,-30 8,-43c5,-14 3,-29 -4,-37c-10,-13 -8,-15 13,-15c16,0 28,-7 32,-19c3,-11 13,-22 21,-25c11,-4 12,-11 6,-23c-9,-17 -8,-29 5,-63c4,-8 5,-18 5,-22c-1,-4 10,-15 24,-24c15,-10 23,-23 19,-31c-3,-8 -2,-20 2,-26c4,-7 8,-28 9,-48c1,-20 5,-42 9,-49c12,-19 14,-102 3,-137c-6,-22 -18,-35 -39,-42c-25,-8 -29,-7 -29,7c0,9 4,24 10,32c5,8 5,19 0,25c-4,5 -8,12 -9,15c0,3 -2,12 -5,20c-15,45 -23,90 -16,90c4,0 10,7 13,15c4,9 -4,19 -21,27c-19,10 -28,23 -33,50c-3,20 -13,43 -21,52c-9,8 -19,34 -23,56c-4,23 -17,52 -30,66c-20,21 -22,30 -14,52c7,18 6,27 -2,33c-18,11 -20,41 -4,66c19,29 70,27 71,-2zm-2370,-312c-10,-10 -19,5 -10,18c6,11 8,11 12,0c2,-7 1,-15 -2,-18zm-26,-3c0,-5 -5,-10 -11,-10c-5,0 -7,5 -4,10c3,6 8,10 11,10c2,0 4,-4 4,-10zm-650,-184c0,-11 -19,-15 -25,-6c-3,5 1,10 9,10c9,0 16,-2 16,-4zm-48,-38c-7,-7 -12,-8 -12,-2c0,14 12,26 19,19c2,-3 -1,-11 -7,-17zm3248,-89c0,-6 -4,-7 -10,-4c-5,3 -10,-3 -10,-14c0,-25 -13,-27 -30,-6c-10,12 -9,15 4,15c9,0 19,7 22,15c6,16 24,11 24,-6zm80,-475c20,-17 28,-30 22,-36c-6,-6 -5,-20 4,-36c8,-15 11,-35 8,-44c-3,-10 -1,-18 5,-18c6,0 10,-8 9,-17c-2,-10 1,-37 6,-61c10,-56 -17,-114 -92,-198c-11,-11 -11,-18 -2,-29c10,-12 10,-15 -1,-15c-9,0 -10,-3 -3,-8c13,-9 17,-91 5,-106c-5,-6 -5,-31 -2,-56c8,-51 -13,-130 -32,-125c-37,9 -57,18 -57,26c0,5 -7,9 -15,9c-19,0 -20,-19 -1,-26c12,-5 13,-11 4,-29c-13,-28 -28,-36 -58,-28c-19,5 -21,10 -15,42c4,20 8,45 10,56c2,11 4,22 4,25c1,3 6,-2 11,-10c8,-13 10,-12 10,3c0,9 5,17 11,17c7,0 9,-9 6,-21c-3,-13 -1,-19 6,-16c7,2 12,12 13,23c0,10 5,29 12,40c6,12 8,24 5,28c-13,12 -31,5 -36,-14c-8,-32 -24,-23 -19,10c2,17 9,30 16,30c6,0 5,4 -3,9c-9,6 -11,15 -6,27c4,11 10,35 12,54c2,19 8,39 14,44c12,13 12,53 -1,77c-8,15 -7,23 4,34c13,14 16,13 24,-1c6,-11 11,-13 16,-5c4,6 3,11 -3,11c-13,0 -26,85 -15,101c4,7 6,37 5,66c-1,29 1,58 5,65c5,7 9,27 10,43c1,31 38,82 61,84c6,1 26,-11 43,-25zm-185,-814c21,-8 25,-14 19,-33c-4,-12 -9,-24 -13,-27c-9,-7 -7,-34 3,-41c4,-4 3,-16 -3,-27c-6,-11 -11,-30 -11,-41c0,-11 -8,-22 -17,-25c-13,-4 -19,-18 -21,-51c-1,-25 1,-45 7,-45c20,0 21,-33 1,-47c-12,-9 -20,-25 -20,-42c0,-16 -8,-39 -18,-51c-15,-18 -21,-20 -44,-11c-15,6 -34,21 -42,33c-14,21 -14,29 -1,71c8,26 27,66 42,90c22,32 28,54 28,94c0,44 3,53 18,53c10,0 17,-8 17,-19c0,-26 16,-35 33,-20c18,17 10,56 -13,62c-13,3 -17,12 -13,33c10,59 9,59 48,44zm-4756,-106c-6,-8 -18,-14 -25,-14c-8,0 -14,-4 -14,-9c0,-15 -32,-22 -47,-10c-24,20 -8,34 35,30c33,-2 42,1 42,14c0,9 5,13 10,10c8,-5 7,-11 -1,-21zm2888,-326c-3,-8 -6,-5 -6,6c-1,11 2,17 5,13c3,-3 4,-12 1,-19zm1619,-325c8,-31 -27,-68 -73,-76c-29,-6 -34,-3 -39,18c-5,19 2,34 30,67c20,23 36,46 36,52c1,18 40,-34 46,-61zm-2616,-413c0,-5 -4,-10 -10,-10c-5,0 -10,5 -10,10c0,6 5,10 10,10c6,0 10,-4 10,-10zm-68,-52c-7,-7 -12,-8 -12,-2c0,14 12,26 19,19c2,-3 -1,-11 -7,-17zm138,-7c0,-10 -24,-21 -43,-21c-7,0 -3,7 7,15c22,17 36,19 36,6z"/>
   <path id="svg_3" d="m5560.73438,9568.70508c-17,-21 -8,-28 15,-11c11,8 14,15 8,19c-6,4 -16,0 -23,-8z"/>
   <path id="svg_4" d="m5590.73438,8593.70508c0,-5 7,-10 16,-10c8,0 12,5 9,10c-3,6 -10,10 -16,10c-5,0 -9,-4 -9,-10z"/>
   <path id="svg_5" d="m5555.73438,8510.70508c-17,-13 -17,-14 3,-19c16,-4 20,-1 19,13c-1,11 -2,19 -2,19c-1,0 -9,-6 -20,-13z"/>
   <path id="svg_6" d="m5605.73438,8514.70508c-3,-5 -1,-12 5,-16c5,-3 10,1 10,9c0,18 -6,21 -15,7z"/>
   <path id="svg_7" d="m5532.73438,8463.70508c0,-14 2,-19 5,-12c2,6 2,18 0,25c-3,6 -5,1 -5,-13z"/>
   <path id="svg_8" d="m5490.73438,8283.70508c0,-5 5,-10 10,-10c6,0 10,5 10,10c0,6 -4,10 -10,10c-5,0 -10,-4 -10,-10z"/>
   <path id="svg_9" d="m1840.73438,3803.70508c0,-5 5,-10 11,-10c5,0 7,5 4,10c-3,6 -8,10 -11,10c-2,0 -4,-4 -4,-10z"/>
   <path id="svg_10" d="m1843.73438,3439.70508c16,-16 14,-46 -3,-46c-5,0 -10,-10 -12,-22c-2,-19 -9,-22 -41,-21c-26,0 -35,-3 -29,-11c5,-6 9,-19 9,-30c0,-16 -6,-18 -50,-13c-27,4 -55,11 -62,17c-13,11 -27,0 -39,-34c-5,-14 -2,-17 9,-12c10,3 13,2 10,-4c-4,-6 -9,-27 -11,-47c-3,-20 -13,-57 -24,-81c-11,-25 -20,-52 -20,-62c0,-10 -17,-33 -37,-51c-44,-39 -113,-173 -113,-217c0,-37 -23,-62 -56,-62c-17,0 -24,-6 -24,-19c0,-11 5,-23 10,-26c6,-3 10,2 10,11c0,16 1,16 18,1c10,-10 22,-14 26,-10c4,5 2,-4 -5,-19c-7,-16 -18,-28 -25,-28c-10,0 -24,-21 -24,-36c0,-2 11,-4 23,-4c13,0 27,-3 30,-7c11,-10 -14,-33 -37,-34c-14,0 -3,-9 32,-26c50,-23 52,-26 38,-42c-9,-10 -16,-23 -16,-30c0,-15 45,-32 66,-24c11,4 15,0 14,-13c-4,-35 0,-44 23,-55c12,-5 30,-30 40,-53c11,-27 26,-46 39,-49c11,-3 17,-10 14,-16c-4,-5 1,-14 11,-19c16,-9 16,-11 0,-36c-23,-34 -22,-56 3,-56c10,0 34,-13 53,-30c24,-21 37,-26 45,-18c5,5 15,7 22,3c8,-5 6,-11 -7,-21c-16,-12 -13,-14 27,-15c25,-1 65,-2 90,-1c50,1 120,-14 120,-27c0,-4 24,-8 53,-8c68,0 104,-10 132,-39c24,-23 75,-33 75,-15c0,6 15,7 33,5c17,-3 60,1 95,9c67,15 102,13 102,-8c0,-6 10,-16 23,-22c22,-10 40,2 65,44c6,9 17,10 39,4c24,-7 35,-6 44,5c6,7 15,11 20,8c5,-3 9,-1 9,5c0,5 9,12 19,16c10,3 30,17 45,31c14,14 29,23 34,20c17,-10 64,42 57,63c-7,23 47,81 75,81c17,0 50,62 50,95c0,8 6,18 13,22c7,4 24,31 37,58c13,28 29,57 35,65c18,22 24,55 13,74c-7,12 -5,22 5,34c20,22 15,76 -13,136c-12,26 -22,65 -22,87c0,21 -7,44 -14,50c-8,7 -12,20 -9,29c3,9 -1,23 -10,30c-8,7 -15,19 -15,26c0,8 -4,14 -10,14c-5,0 -7,6 -5,13c3,7 -9,28 -26,47c-17,18 -40,53 -50,77c-20,48 -125,163 -148,163c-7,0 -33,-10 -57,-22c-55,-27 -99,-17 -123,27c-9,17 -25,32 -36,34c-11,1 -36,21 -56,42c-20,21 -39,39 -44,39c-4,0 -29,-8 -56,-17c-42,-15 -53,-16 -81,-5c-18,8 -82,16 -143,19c-108,6 -111,6 -136,37c-25,28 -32,31 -105,34c-72,4 -77,3 -61,-12zm703,-441c24,-14 47,-24 51,-23c17,4 49,-13 61,-32c10,-17 10,-26 0,-48c-18,-37 -37,-34 -60,10c-11,20 -28,40 -39,43c-10,4 -19,10 -19,15c0,5 -12,21 -27,35c-35,32 -22,32 33,0zm206,-166c24,-25 28,-36 23,-61c-5,-20 -3,-33 5,-38c15,-9 0,-118 -15,-110c-12,6 -7,50 8,69c10,12 8,13 -10,9c-19,-5 -22,-1 -25,30c-2,29 -9,38 -40,55c-35,17 -50,37 -29,37c5,0 11,9 14,20c7,29 35,25 69,-11zm-1,-262c-8,-8 -11,-7 -11,4c0,20 13,34 18,19c3,-7 -1,-17 -7,-23z"/>
  </g>
 </g>
</svg>